<svg xmlns="http://www.w3.org/2000/svg" xmlns:xlink="http://www.w3.org/1999/xlink" version="1.1" x="0px" y="0px" viewBox="0 0 1000 1250" style="enable-background:new 0 0 1000 1000;" xml:space="preserve"><g><path d="M875.4,445l-2.3,3c-7-3.6-15.3-4.2-23.4-4.5c-8.2-0.1-16.4,0.3-24.6,1.1c-4.1,0.4-8.2,0.9-12.3,1.4   c-4.2,0.5-8.2,1.1-12.3,1.8c-8.1,1.3-16.2,2.8-24.2,4.6c-8,1.8-15.9,3.9-23.8,6.1c-7.8,2.3-15.6,4.7-23.3,7.4   c-3.8,1.3-7.7,2.8-11.4,4.2l-5.6,2.2l-5.8,2.3l-12.5,4.7c-4.2,1.4-8.5,2.7-12.8,4c-4.3,1.3-8.7,2.3-13.1,3.5   c-2.2,0.6-4.4,1-6.6,1.4l-6.7,1.3c-4.5,0.8-9,1.4-13.6,2c-4.6,0.4-9.2,0.9-13.8,1.1l-7,0.2l-3.5,0.1l-3.5-0.1l-7-0.3   c-2.3-0.2-4.7-0.4-7-0.6c-4.7-0.3-9.3-1.3-14-1.9c-2.3-0.5-4.6-1-6.9-1.5c-1.2-0.3-2.3-0.5-3.5-0.8l-3.4-1c-2.3-0.7-4.6-1.2-6.8-2   l-6.8-2.3c-4.4-1.8-8.9-3.5-13.2-5.6c-8.6-4.1-16.9-9-24.6-14.6c-7.7-5.6-15-11.8-21.5-18.7c-3.3-3.4-6.5-7-9.5-10.8   c-1.5-1.9-3-3.8-4.4-5.9c-0.7-1-1.4-2.1-2.1-3.1l-1.1-1.7L481,421l0.6,0.9l-1.2-1.8l0.6,0.9l-8.7-11.5c-3.2-4.1-6.5-8-9.8-12   c-1.6-2-3.4-3.9-5.1-5.8l-5.1-5.7c-3.5-3.8-7.2-7.3-10.7-11c-1.8-1.8-3.8-3.4-5.6-5.2c-1.9-1.7-3.7-3.5-5.7-5.1l-5.9-4.8l-2.9-2.4   l-3-2.2l-6.1-4.5l-6.3-4.1l-3.1-2l-3.2-1.9c-2.2-1.2-4.3-2.5-6.5-3.7l-6.6-3.3c-2.2-1.1-4.5-2-6.8-2.9c-2.2-1-4.6-1.8-6.9-2.6   l-3.5-1.2l-3.5-1c-2.4-0.7-4.7-1.4-7.1-1.9c-2.4-0.5-4.7-1.1-7.1-1.4c-2.4-0.4-4.8-0.8-7.2-1c-2.4-0.2-4.8-0.5-7.2-0.6l-3.6-0.1   l-3.6,0.1c-2.4,0-4.8,0.2-7.2,0.4c-2.4,0.2-4.8,0.6-7.2,0.8c-2.4,0.4-4.8,0.8-7.1,1.3c-4.7,1-9.3,2.4-13.8,4.1   c-2.2,0.8-4.4,1.8-6.6,2.8c-0.1,0.1-0.3,0.1-0.4,0.2l0.2,3l0,10.8c-0.1,3.6-0.4,7.1-0.6,10.7c-0.2,3.6-0.7,7-1.1,10.6   c-0.3,3.5-1,7-1.5,10.4l-0.8,5.2l-1,5.1c-1.3,6.9-2.9,13.6-4.5,20.4c-1.8,6.7-3.5,13.4-5.6,20l-1.5,5l-1.6,4.9   c-1.1,3.3-2.1,6.5-3.2,9.8l-3.4,9.7c-1.2,3.2-2.4,6.4-3.6,9.6c-1.2,3.2-2.4,6.4-3.7,9.6s-2.5,6.4-3.8,9.5l-2.6,6.3l0.2,0.1   c1.7,0.8,3.3,1.7,5,2.5c7.4,4,13.6,8,19.3,12.4c5.7,4.4,10.6,9,14.9,13.6c8.6,9.3,14.6,18.4,18.7,26.2c4.2,7.8,6.5,14.3,7.9,18.7   c0.7,2.2,1.1,4,1.5,5.1c0.3,1.2,0.5,1.8,0.5,1.8s-1.4-2.1-3.9-5.9c-2.7-3.8-6.6-9.2-12.2-15.4c-5.6-6.2-12.9-13.1-22.1-19.7   c-4.7-3.2-9.7-6.4-15.2-9.3c-5.5-2.8-11.6-5.5-17.6-7.5c-1.8-0.6-3.5-1.1-5.3-1.7l-0.6-0.2c-1.5,3.5-3.1,6.9-4.7,10.4   c-2.8,6.2-5.7,12.4-8.7,18.5c-3,6.1-5.9,12.3-9,18.3c-3,6.1-6.1,12.1-9.3,18.2c-3.1,6-6.4,12-9.6,18c-6.5,11.9-13.2,23.8-20.2,35.4   l-3.3-1.8c6.1-12,12-24.3,17.6-36.5c2.8-6.1,5.6-12.3,8.3-18.5c2.8-6.2,5.5-12.4,8.1-18.6c2.7-6.2,5.2-12.5,7.8-18.7   c2.5-6.3,5-12.5,7.4-18.8c1.1-2.9,2.2-5.8,3.3-8.7c-0.8-0.1-1.6-0.3-2.4-0.4c-7-1.1-14.4-1.8-21.8-1.6c-15,0.2-30.5,3.4-45.2,9.6   c-7.3,3.2-14.5,7-21.2,11.7c-3.3,2.4-6.6,4.8-9.7,7.5l-2.3,2l-2.2,2.1c-1.5,1.4-2.9,2.9-4.4,4.4c-1.5,1.4-2.7,3.1-4.1,4.6   c-1.3,1.6-2.6,3.2-3.9,4.8c-2.4,3.4-4.8,6.8-6.9,10.3c-1,1.8-2.1,3.6-3.1,5.4l-1.5,2.8l-1.2,2.6c-0.4,0.9-0.8,1.6-1.2,2.7l-1.4,3.4   l-0.7,1.7l-0.1,0.2l0,0l0,0.1c0,0,0,0,0,0l0,0v0l0,0v0l-0.2,0.7l-1,3c-5.5,15.8-7.1,32.8-5.5,49.2c0.2,2.1,0.6,4.1,0.8,6.1   c0.4,2,0.8,4,1.1,6c0.9,4,1.9,8,3.2,11.8c2.5,7.8,5.9,15.2,9.8,22.1c7.9,13.9,18.4,25.8,30.2,35c2.9,2.3,6,4.5,9,6.5   c1.5,0.9,3.1,2,4.6,2.8c1.5,0.8,2.9,1.7,4.5,2.5c1.8,0.9,3.5,1.8,5.3,2.6l0.3,0.2l0.2,0.1c0,0-0.1,0-0.2-0.1c0,0,0,0,0,0l0.6,0.3   l1.2,0.5c0.8,0.4,1.6,0.7,2.4,1.1c1.6,0.7,3.2,1.3,4.8,1.9c1.6,0.6,3.2,1.3,4.8,1.7c6.4,2.3,12.7,3.6,18.9,4.8   c6.1,1,12.1,1.6,17.7,1.8c11.3,0.5,21.3-0.8,29.5-2.3c8.3-1.5,14.6-3.6,19-4.9c4.4-1.5,6.7-2.3,6.7-2.3s-2,1.5-5.7,4.3   c-3.9,2.6-9.6,6.5-17.7,10.1c-8,3.7-18.3,7.5-30.8,9.5c-1.6,0.3-3.2,0.5-4.8,0.8c-1.6,0.3-3.3,0.3-4.9,0.5   c-3.4,0.4-6.8,0.4-10.4,0.6c-1.8,0-3.6,0-5.5-0.1c-1.8,0-3.7-0.1-5.6-0.3c-1.9-0.2-3.8-0.3-5.7-0.5c-1.9-0.3-3.9-0.5-5.8-0.8   c-2-0.2-3.9-0.7-5.9-1.1c-2-0.4-4-0.8-6-1.4c-1-0.3-2-0.5-3-0.8l-1.5-0.4l-0.8-0.2c0.2,0.1-0.5-0.2-0.5-0.2l-0.2-0.1l-0.4-0.1   c-1.8-0.6-3.7-1.2-5.6-1.8c-2.1-0.8-4.2-1.6-6.4-2.5c-2.1-0.9-4.1-1.8-6.1-2.8c-4-2-8.1-4.1-12.1-6.5   c-15.9-9.7-30.9-23.4-42.4-40.5c-5.8-8.5-10.7-17.9-14.6-27.9c-3.9-9.9-6.8-20.5-8.3-31.3c-1.5-10.9-1.9-22-0.9-33.1   c1-11.1,3.4-22.1,6.9-32.7l1.4-3.9l0.4-1l0.3-0.9l0.2-0.4l2.1-5.1c0.5-1.2,1.2-2.6,1.8-3.9c0.6-1.3,1.3-2.7,1.9-4l2-3.7   c1.3-2.5,2.8-4.8,4.2-7.2c5.8-9.5,12.9-18.1,20.7-25.8c2-1.9,3.9-3.8,6-5.6l3.1-2.7l3.2-2.5c4.3-3.4,8.8-6.4,13.3-9.2   c9.1-5.6,18.7-10.1,28.5-13.3c19.6-6.6,39.8-8.6,58.3-6.7c9.3,1,18.1,2.8,26.4,5.4c1,0.3,2.1,0.6,3.1,1c0.6,0.2,1.2,0.4,1.8,0.7   l2.1-6.1c1.1-3.2,2.1-6.4,3.2-9.6c1.1-3.2,2.1-6.4,3.1-9.6l2.9-9.6l2.8-9.7c0.9-3.2,1.7-6.5,2.6-9.7l1.3-4.8l1.2-4.9   c1.6-6.5,3-13,4.3-19.5c1.2-6.5,2.4-13,3.3-19.5l0.7-4.9l0.5-4.9c0.3-3.3,0.8-6.5,0.9-9.7c0.1-3.2,0.5-6.5,0.5-9.7   c0-3.2,0.1-6.4,0-9.6l-0.5-9.5l-1.1-9.3l-0.9-6.9l5.5-3.8l1.2-0.9l1-0.7c0.7-0.5,1.4-0.9,2-1.3c1.3-0.8,2.7-1.5,4-2.3   c2.7-1.4,5.4-2.8,8.1-3.9c4.8-2.1,9.8-3.9,14.8-5.4c2.2-2,4.5-4,6.9-6.1c1.1-1,2.3-2,3.5-3c1.2-1,2.4-2,3.6-3c2.4-2,5-4,7.6-6   c2.6-2,5.3-4,8-6.1c2.8-2,5.6-4,8.5-5.9c2.9-1.9,5.8-3.9,8.8-5.7l4.5-2.8l4.6-2.7c6.1-3.6,12.5-7,18.7-10.3   c3.2-1.5,6.4-3.1,9.6-4.5c3.2-1.3,6.4-2.7,9.7-3.7c6.5-2.1,13-3.5,19.3-4.2c6.3-0.8,12.3-1,17.8-0.9c2.8,0.1,5.4,0.3,7.9,0.5   c2.5,0.4,4.9,0.7,7.1,1.1c2.2,0.3,4.2,0.9,6.1,1.4c1.9,0.5,3.6,1,5.1,1.5c1.5,0.5,2.8,1.1,4,1.6c1.1,0.5,2.1,0.9,2.9,1.3   c1.6,0.7,2.4,1.1,2.4,1.1l-0.4,2c0,0-0.9,0.2-2.6,0.4c-1.7,0.3-4,0.5-7,1c-1.5,0.3-3.2,0.5-4.9,0.8c-1.8,0.3-3.7,0.5-5.7,1   c-2,0.4-4.1,0.8-6.4,1.2c-2.2,0.5-4.5,1.1-6.9,1.6c-4.8,1.2-10,2.5-15.3,4c-5.4,1.6-11,3.3-16.9,5.1c-3,0.8-5.9,1.8-9,2.7   c-3.1,0.9-6.1,1.9-9.3,2.8c-3.1,1.1-6.3,2.1-9.4,3.3c-3.1,1.2-6.2,2.5-9.3,3.9l-4.6,2.1l-4.5,2.2c-3,1.4-6,3-8.9,4.6   c-3,1.5-5.8,3.2-8.7,4.8c-2.8,1.6-5.7,3.2-8.4,4.9c-2.1,1.3-4.2,2.5-6.2,3.8c2.1-0.2,4.1-0.4,6.2-0.5c1.5-0.1,3-0.2,4.4-0.3l4.5,0   c3-0.1,5.9,0.1,8.9,0.3c3,0.1,5.9,0.5,8.8,0.8c3,0.3,5.8,0.9,8.8,1.4c2.9,0.5,5.8,1.2,8.6,1.9l4.3,1.1l4.2,1.3   c2.8,0.9,5.6,1.7,8.3,2.8c2.7,1,5.5,2,8.2,3.2l8,3.6c2.7,1.2,5.2,2.6,7.7,3.9l3.9,2l3.7,2.2l7.4,4.4l7.1,4.8l3.6,2.4l3.4,2.5   l6.8,5.1c2.3,1.7,4.4,3.6,6.6,5.4c2.2,1.8,4.4,3.6,6.5,5.5l6.3,5.7c2,1.9,4.3,3.8,6.2,5.8l6,5.9c2,2,4,3.9,5.9,6   c3.8,4.1,7.7,8.2,11.4,12.4l10.9,12.7l1.2,1.8c0,0,0-0.1,0,0l0.1,0.2l0.3,0.4l0.7,1c0.5,0.7,1,1.3,1.6,2c1.1,1.4,2.3,2.7,3.5,4.1   c2.4,2.7,5,5.3,7.7,7.8c5.4,4.9,11.2,9.5,17.4,13.6c6.2,4,12.7,7.5,19.4,10.5c6.7,3,13.6,5.5,20.8,7.4l2.7,0.8   c0.9,0.2,1.8,0.4,2.7,0.6l5.4,1.2c3.7,0.6,7.3,1.4,11,1.7c1.9,0.2,3.7,0.5,5.6,0.7l5.6,0.4l2.8,0.2l2.8,0.1l5.7,0.1   c1.9,0.1,3.8-0.1,5.7-0.1l5.8-0.2c3.8-0.4,7.7-0.6,11.6-1c3.9-0.6,7.7-1,11.6-1.6c3.9-0.7,7.8-1.3,11.6-2.1   c3.8-0.9,7.7-1.8,11.6-2.7l11.6-3.2l6.2-1.8l6.4-1.8c4.3-1.1,8.5-2.2,12.8-3.2c8.5-2,17.1-3.6,25.8-5c8.6-1.4,17.3-2.3,26.1-3   c8.7-0.7,17.4-1,26.2-0.9c4.3,0.1,8.8,0.2,13,0.4c4.4,0.2,8.7,0.5,13,0.9c8.7,0.8,17.4,2.1,25.9,4.2c4.3,1.1,8.6,2.4,12.7,4.1   C868,439.6,872,441.8,875.4,445z"/><polygon points="481.7,421.8 481,421 480.5,420.1  "/><path d="M949,623.2c-4.9,0.9-9.9,1.7-14.8,2.5l-14.8,2.2c-9.9,1.3-19.8,2.6-29.6,3.8c-4.9,0.6-9.9,1.1-14.8,1.6   c-4.9,0.6-9.9,1.1-14.8,1.5c-9.9,1-19.8,1.9-29.6,2.7c-9.9,0.8-19.8,1.6-29.6,2.2c-9.9,0.7-19.8,1.3-29.6,1.9   c-19.8,1.1-39.5,2.1-59.3,2.5c-9.9,0.3-19.8,0.4-29.7,0.4H681c2.1,9.3,5.4,18.3,9.6,26.7c0.9,1.8,2,3.6,2.9,5.4   c1.1,1.8,2.2,3.5,3.2,5.3c2.2,3.4,4.6,6.8,7.1,10c5.1,6.3,10.9,12.1,17,17.2c12.3,10.2,26.4,17.6,40.6,22c3.6,1.1,7.2,2.1,10.7,2.8   c1.8,0.3,3.6,0.8,5.3,1c1.7,0.2,3.3,0.5,5.1,0.8c2,0.2,3.9,0.4,5.8,0.6l0.4,0l0.2,0c0,0-0.1,0-0.1,0l0.7,0l1.3,0.1   c0.9,0,1.7,0.1,2.6,0.1c1.7,0.1,3.5,0.1,5.2,0.1c1.7-0.1,3.4,0.1,5.1-0.1c6.8-0.2,13.2-1.2,19.3-2.2c6.1-1.2,11.9-2.8,17.2-4.6   c10.7-3.6,19.7-8.3,26.8-12.6c7.2-4.3,12.4-8.5,16-11.3c3.3-2.8,5.2-4.4,5.4-4.5c-0.1,0.3-1.5,2.3-3.8,6c-2.7,3.8-6.7,9.5-13,15.7   c-6.2,6.3-14.5,13.5-25.4,19.8c-1.4,0.8-2.8,1.6-4.2,2.4c-1.4,0.8-2.9,1.5-4.5,2.2c-3,1.6-6.2,2.8-9.5,4.2   c-1.7,0.7-3.4,1.3-5.1,1.8c-1.7,0.6-3.5,1.2-5.3,1.7c-1.8,0.5-3.7,1.1-5.5,1.5c-1.9,0.4-3.8,0.9-5.8,1.3c-1.9,0.5-3.9,0.7-5.9,1   c-2,0.3-4,0.6-6.1,0.8c-1,0.1-2.1,0.2-3.1,0.3l-1.6,0.1l-0.8,0.1c0,0-0.5,0-0.5,0h-0.2l-0.4,0c-1.9,0.1-3.9,0.2-5.9,0.3   c-2.2,0-4.5,0-6.8-0.1c-2.3-0.1-4.5-0.3-6.7-0.4c-4.5-0.4-9-1-13.6-1.8c-18.3-3.4-37.2-10.9-54-22.9c-8.5-5.9-16.4-13-23.5-20.9   c-7.2-7.9-13.6-16.8-18.8-26.4c-5.2-9.6-9.6-19.9-12.5-30.6c-1.2-4.4-2.3-9-3-13.5c-6.6-0.1-13.3-0.3-19.9-0.5l-29.7-0.7   c-9.9-0.2-19.8-0.5-29.7-0.6l-29.7-0.4l-59.1-0.7l1.4-0.1l-1.7,0.1h0.2l-14.6,1.4c-2.6,0.3-5.3,0.4-8,0.5l-8.1,0.4l-4,0.2l-4.1,0   l-8.2-0.1c-2.7,0-5.5-0.2-8.2-0.4l-8.2-0.5l-8.3-1c-1.4-0.2-2.8-0.3-4.1-0.5l-4.2-0.8c-2.8-0.6-5.5-1-8.3-1.8l-4.1-1.1   c-1.4-0.4-2.8-0.8-4.1-1.3l-4.1-1.5c-0.7-0.3-1.4-0.5-2.1-0.8l-2-0.9l-4.1-1.9l-4-2.3c-1.3-0.7-2.6-1.7-3.9-2.6   c-0.6-0.5-1.3-0.9-1.9-1.4l-1.9-1.6c-1.3-1-2.5-2.4-3.7-3.7c-0.6-0.7-1.2-1.5-1.8-2.3c-0.3-0.3-0.6-0.9-0.9-1.4l-0.4-0.7   c-0.1-0.2-0.4-0.7-0.6-1.1l0.4,0.7c-0.9-1.7-1.8-3.4-2.6-5.1c-0.8-1.8-1.6-3.5-2.3-5.4c-0.7-1.9-1.3-3.7-1.8-5.7   c-0.3-1-0.5-1.9-0.7-2.9l-0.5-3c-0.2-1-0.3-2-0.4-3.1c-0.1-1-0.3-2-0.2-3.1l0-3.1c0-1,0.1-2.1,0.2-3.1c0-1,0.2-2.1,0.4-3.1   c0.2-1,0.3-2.1,0.6-3.1c0.4-2,1.1-4,1.8-6l1.2-2.9c0.4-0.9,0.9-1.8,1.4-2.8c1-1.8,2-3.5,3.2-5.2c0.5-0.8,1.2-1.6,1.8-2.4   c0.6-0.8,1.2-1.5,1.9-2.3c0.6-0.8,1.3-1.5,2-2.2c0.7-0.7,1.3-1.4,2-2c1.4-1.3,2.8-2.6,4.3-3.8c1.5-1.2,3-2.3,4.6-3.4   c1.6-1,3.1-2.1,4.8-3c0.8-0.5,1.7-0.9,2.5-1.4c0.9-0.5,1.6-0.8,2.8-1.3l0.9-0.4l0.6-0.1c2.9-0.5,5.8-0.9,8.7-1.3   c2.9-0.3,5.8-0.7,8.7-0.8c2.9-0.1,5.8-0.3,8.8-0.3l4.4,0l4.4,0.3c2.9,0.1,5.8,0.6,8.8,0.9c1.5,0.2,2.9,0.5,4.3,0.8   c1.5,0.3,2.9,0.5,4.3,0.9c1.4,0.4,2.9,0.7,4.3,1.1l4.2,1.3c1.4,0.4,2.8,1,4.1,1.5c1.4,0.5,2.8,1,4.1,1.7c2.7,1.1,5.3,2.5,7.9,3.8   l3.8,2.2c1.3,0.7,2.5,1.6,3.7,2.3c2.4,1.6,4.8,3.3,7,5.2c1.2,0.9,2.2,1.8,3.3,2.8c1.1,0.9,2.1,1.9,3.2,2.9c2.1,2,4.1,4.1,6,6.3   c1.9,2.1,3.7,4.4,5.4,6.7c1.7,2.3,3.3,4.7,4.8,7.1c1.5,2.5,2.9,4.9,4.1,7.6l-3.4,1.6c-1.3-2.3-2.8-4.6-4.4-6.8   c-1.6-2.2-3.3-4.3-5.1-6.4c-1.8-2-3.7-4-5.6-5.9c-2-1.9-4-3.7-6.1-5.4c-1-0.9-2.1-1.7-3.2-2.5c-1.1-0.8-2.2-1.6-3.3-2.3   c-2.2-1.5-4.5-2.9-6.9-4.2c-1.2-0.6-2.3-1.3-3.5-1.9l-3.6-1.7c-2.5-1-4.9-2.1-7.4-2.9c-1.2-0.5-2.5-0.8-3.8-1.2   c-1.3-0.4-2.5-0.8-3.8-1.1l-3.9-0.9c-1.3-0.3-2.6-0.5-3.9-0.7c-1.3-0.2-2.6-0.4-3.9-0.5c-1.3-0.1-2.6-0.3-4-0.4   c-2.7-0.1-5.3-0.4-8-0.3l-4,0l-4,0.3c-2.6,0.1-5.3,0.5-7.9,0.8c-2.6,0.3-5.3,0.9-7.9,1.3c-2.3,0.5-4.6,1-6.8,1.5   c0.2-0.1,0.4-0.2,0.5-0.3l-1.5,0.5c0.3-0.1,0.6-0.1,1-0.2c-0.4,0.2-0.9,0.5-1.3,0.8c-0.6,0.4-1.3,0.8-1.9,1.2   c-1.3,0.8-2.5,1.8-3.7,2.7c-1.2,1-2.3,1.9-3.4,2.9c-1.1,1-2.2,2.1-3.1,3.1c-0.5,0.5-1,1.1-1.4,1.7c-0.5,0.6-0.9,1.1-1.3,1.7   c-0.4,0.6-0.9,1.1-1.2,1.7c-0.4,0.6-0.8,1.2-1.1,1.8c-0.7,1.2-1.3,2.4-1.9,3.7c-0.3,0.6-0.5,1.2-0.8,1.9l-0.6,1.9   c-0.3,1.3-0.7,2.6-0.8,3.9c-0.1,0.6-0.2,1.3-0.2,1.9c-0.1,0.7-0.1,1.3-0.1,2l0,2l0.2,2c0,0.7,0.2,1.3,0.3,2c0.1,0.7,0.2,1.3,0.4,2   l0.5,2c0.2,0.7,0.5,1.3,0.7,2c0.4,1.3,1,2.6,1.6,3.9c0.5,1.3,1.3,2.6,1.9,3.9l2.3,3.8l0.4,0.8c0-0.1-0.2-0.3-0.2-0.4l0.1,0.1   c0.1,0.1,0.1,0.1,0.2,0.2c0.3,0.3,0.4,0.5,0.7,0.8c0.6,0.5,1.2,1.1,2,1.7l1.1,0.8l1.3,0.8c0.9,0.5,1.6,1.1,2.6,1.5l2.8,1.4l3.1,1.2   c2,0.9,4.3,1.4,6.4,2.1c1.1,0.4,2.2,0.6,3.4,0.8l3.4,0.7c2.3,0.6,4.7,0.7,7,1.1l3.5,0.5c1.2,0.1,2.4,0.2,3.6,0.3l7.3,0.5l7.4,0   c2.5,0,4.9,0.1,7.4-0.1l7.4-0.4l3.7-0.2l3.7-0.4l7.5-0.7c2.5-0.2,5-0.4,7.5-0.9l15-2.1l0.6-0.1l1.1,0l59.3-2.3l29.7-1.2   c9.9-0.4,19.8-1,29.7-1.4l29.6-1.5c6.3-0.3,12.6-0.7,18.8-1c0.1-1.1,0.2-2.2,0.3-3.3l0.5-4.1c0.3-2.8,0.9-5.5,1.4-8.2   c2-10.9,5.6-21.5,10.2-31.5c1.2-2.5,2.3-5,3.6-7.4l1.9-3.6l2.1-3.5c2.8-4.6,5.9-9,9.2-13.3c6.5-8.5,13.9-16.1,22-22.6   c15.9-13.2,34.2-22.1,52.2-26.9c9-2.3,18-3.8,26.6-4.3c1.1-0.1,2.1-0.1,3.2-0.2c1.1,0,2.1,0,3.2,0c2.1,0,4.2,0,6.3,0.1   c1,0,2.1,0.1,3.1,0.1l1.5,0.1l0.5,0l0.2,0l0.4,0l0.7,0.1c1.9,0.2,3.7,0.4,5.5,0.6c8.3,1.1,15.5,2.7,22.4,4.8   c6.8,2.1,13.1,4.7,18.8,7.5c11.3,5.7,20.2,12.1,26.8,17.9c6.7,5.8,11.1,11.1,14.1,14.7c1.5,1.8,2.5,3.3,3.2,4.3   c0.6,0.9,1,1.3,1,1.4c-0.2-0.2-2.2-1.6-5.7-4.1c-3.8-2.6-9.4-6.3-16.8-10.1c-7.4-3.8-16.8-7.7-27.7-10.6   c-5.5-1.3-11.3-2.6-17.5-3.3c-6.1-0.7-12.8-1-19.2-0.8c-1.8,0.1-3.7,0.2-5.5,0.3l-0.7,0l-0.4,0l-0.2,0c0.5,0,0.2,0,0.1,0l-1.3,0.1   c-0.9,0.1-1.7,0.2-2.6,0.3c-1.7,0.1-3.5,0.4-5.2,0.7c-0.9,0.1-1.7,0.3-2.6,0.4c-0.9,0.2-1.7,0.4-2.6,0.5c-7,1.4-14.1,3.4-21,6.2   c-13.9,5.5-27.3,13.9-38.9,25c-5.7,5.6-11.1,11.6-15.7,18.4c-2.3,3.4-4.5,6.8-6.4,10.5l-1.5,2.7l-1.4,2.8c-0.9,1.8-1.7,3.7-2.5,5.6   c-0.9,1.9-1.5,3.9-2.2,5.8c-0.7,2-1.3,3.9-1.9,5.9c-1.1,4-2.1,8-2.8,12.1c-0.3,2.1-0.8,4.1-0.9,6.2l-0.1,1.1c0.9,0,1.8,0,2.8-0.1   c9.9-0.3,19.8-0.4,29.7-0.4c19.8-0.1,39.6,0.4,59.4,0.9c9.9,0.3,19.8,0.6,29.7,1.1c9.9,0.4,19.8,0.9,29.7,1.4   c9.9,0.6,19.8,1.1,29.7,1.9c5,0.3,9.9,0.7,14.8,1.1c5,0.4,9.9,0.8,14.9,1.2c9.9,0.8,19.8,1.9,29.7,2.9l14.9,1.8   c5,0.7,9.9,1.3,14.9,2.1L949,623.2z"/><path d="M379.8,548.1c-0.1,0.1-0.3,0.2-0.5,0.3c-0.3,0.1-0.6,0.1-1,0.2L379.8,548.1z"/><polygon points="476.2,641.1 474.8,641.2 474.5,641.2  "/></g><text x="0" y="1015" fill="#000000" font-size="5px" font-weight="bold" font-family="'Helvetica Neue', Helvetica, Arial-Unicode, Arial, Sans-serif">Created by leo-graph.com</text><text x="0" y="1020" fill="#000000" font-size="5px" font-weight="bold" font-family="'Helvetica Neue', Helvetica, Arial-Unicode, Arial, Sans-serif">from the Noun Project</text></svg>