<svg width="586" height="136" viewBox="0 0 586 136" fill="none" xmlns="http://www.w3.org/2000/svg">
<path d="M222.977 117H216.57L203.211 69.5781L189.852 117H183.445L168.172 62.8594H162.391V58.6797H183.68V62.8594H176.414L188.562 105.945L201.844 58.6797H208.172L221.688 106.453L233.914 62.8594H227.195V58.6797H243.992V62.8594H238.25L222.977 117ZM248.68 117V112.859H256.102V62.8594H248.68V58.6797H295.633V71.6484H290.828V63.4844H264.031V83.0156H283.133V75.7109H287.938V95.0859H283.133V87.7812H264.031V112.195H291.453V104.031H296.258V117H248.68ZM343.445 117V112.859H350.906V63.3281H333.758V72.4297H328.953V58.6797H380.75V72.4297H375.945V63.3281H358.797V112.859H366.258V117H343.445ZM419.773 75.3984V85.7891H415.633C415.503 83.7318 414.93 82.1953 413.914 81.1797C412.898 80.1641 411.414 79.6562 409.461 79.6562C405.919 79.6562 403.198 80.8802 401.297 83.3281C399.422 85.776 398.484 89.2917 398.484 93.875V112.859H406.805V117H384.812V112.859H391.297V79.5781H384.422V75.4766H398.484V82.8594C399.891 79.9688 401.701 77.8333 403.914 76.4531C406.128 75.0469 408.823 74.3438 412 74.3438C413.172 74.3438 414.396 74.4349 415.672 74.6172C416.974 74.7995 418.341 75.0599 419.773 75.3984ZM451.648 103.953V95.1641H442.391C438.823 95.1641 436.167 95.9323 434.422 97.4688C432.677 99.0052 431.805 101.362 431.805 104.539C431.805 107.43 432.69 109.721 434.461 111.414C436.232 113.107 438.628 113.953 441.648 113.953C444.643 113.953 447.052 113.029 448.875 111.18C450.724 109.331 451.648 106.922 451.648 103.953ZM458.836 91.0625V112.859H465.242V117H451.648V112.508C450.06 114.435 448.224 115.854 446.141 116.766C444.057 117.677 441.622 118.133 438.836 118.133C434.227 118.133 430.568 116.909 427.859 114.461C425.151 112.013 423.797 108.706 423.797 104.539C423.797 100.242 425.346 96.9089 428.445 94.5391C431.544 92.1693 435.919 90.9844 441.57 90.9844H451.648V88.1328C451.648 84.9818 450.685 82.5469 448.758 80.8281C446.857 79.0833 444.174 78.2109 440.711 78.2109C437.846 78.2109 435.568 78.862 433.875 80.1641C432.182 81.4661 431.128 83.3932 430.711 85.9453H427V77.5469C429.5 76.4792 431.922 75.6849 434.266 75.1641C436.635 74.6172 438.94 74.3438 441.18 74.3438C446.935 74.3438 451.31 75.776 454.305 78.6406C457.326 81.4792 458.836 85.6198 458.836 91.0625ZM487.312 117L472.039 79.6562H467.312V75.4766H486.414V79.6562H479.773L491.453 108.211L503.133 79.6562H496.922V75.4766H512.508V79.6562H507.859L492.586 117H487.312ZM556.141 97H525.164V97.3125C525.164 102.911 526.219 107.143 528.328 110.008C530.438 112.846 533.549 114.266 537.664 114.266C540.815 114.266 543.393 113.445 545.398 111.805C547.43 110.138 548.849 107.677 549.656 104.422H555.438C554.292 108.979 552.169 112.404 549.07 114.695C545.997 116.987 541.948 118.133 536.922 118.133C530.854 118.133 525.971 116.141 522.273 112.156C518.602 108.146 516.766 102.833 516.766 96.2188C516.766 89.6562 518.576 84.3698 522.195 80.3594C525.815 76.349 530.568 74.3438 536.453 74.3438C542.729 74.3438 547.547 76.2839 550.906 80.1641C554.266 84.0182 556.01 89.6302 556.141 97ZM547.664 92.8594C547.508 88.0156 546.479 84.3698 544.578 81.9219C542.703 79.4479 539.995 78.2109 536.453 78.2109C533.146 78.2109 530.542 79.4479 528.641 81.9219C526.74 84.3958 525.581 88.0417 525.164 92.8594H547.664ZM576.531 112.859H583.328V117H562.43V112.859H569.344V60.3594H562.43V56.2188H576.531V112.859Z" fill="#534645"/>
<path d="M141.487 46.2813L141.093 46.9504C139.892 46.1475 138.468 46.0137 137.078 45.9468C135.672 45.9245 134.265 46.0137 132.858 46.1921C132.155 46.2813 131.451 46.3928 130.748 46.5043C130.028 46.6158 129.341 46.7497 128.638 46.9058C127.248 47.1957 125.859 47.5302 124.486 47.9316C123.114 48.3331 121.759 48.8014 120.403 49.2921C119.065 49.805 117.727 50.3402 116.406 50.9424C115.754 51.2323 115.085 51.5668 114.451 51.8791L113.49 52.3697L112.495 52.8826L110.351 53.9308C109.63 54.243 108.892 54.533 108.155 54.8229C107.417 55.1128 106.662 55.3358 105.907 55.6034C105.53 55.7372 105.153 55.8265 104.775 55.9157L103.626 56.2056C102.854 56.384 102.082 56.5178 101.293 56.6516C100.503 56.7408 99.7144 56.8523 98.9252 56.8969L97.7244 56.9415L97.1239 56.9638L96.5235 56.9415L95.3226 56.8746C94.9281 56.83 94.5163 56.7854 94.1218 56.7408C93.3155 56.6739 92.5264 56.4509 91.7201 56.3171C91.3255 56.2056 90.9309 56.0941 90.5364 55.9826C90.3305 55.9157 90.1418 55.8711 89.9359 55.8042L89.3526 55.5811C88.9581 55.425 88.5635 55.3135 88.1861 55.1351L87.0196 54.6222C86.2647 54.2207 85.4927 53.8416 84.7551 53.3733C83.2797 52.4589 81.8558 51.3661 80.5349 50.1172C79.214 48.8683 77.9616 47.4856 76.8465 45.9468C76.2804 45.1885 75.7315 44.3857 75.2168 43.5382C74.9595 43.1145 74.7022 42.6907 74.462 42.2224C74.3419 41.9994 74.2218 41.7541 74.1017 41.5311L73.913 41.1519L73.8272 40.9289L73.9302 41.1296L73.7243 40.7282L73.8272 40.9289L72.3347 38.3642C71.7858 37.4499 71.2197 36.5801 70.6535 35.688C70.3791 35.242 70.0703 34.8183 69.7786 34.3945L68.9037 33.1233C68.3033 32.2759 67.6685 31.4953 67.0681 30.6701C66.7593 30.2687 66.4162 29.9119 66.1074 29.5104C65.7815 29.1313 65.4727 28.7299 65.1296 28.3731L64.1174 27.3026L63.6199 26.7673L63.1053 26.2767L62.0588 25.2731L60.978 24.3588L60.4462 23.9127L59.8973 23.489C59.5198 23.2214 59.1596 22.9314 58.7822 22.6638L57.6499 21.9279C57.2725 21.6825 56.8779 21.4818 56.4834 21.2811C56.106 21.0581 55.6942 20.8797 55.2997 20.7013L54.6992 20.4337L54.0988 20.2106C53.6871 20.0545 53.2925 19.8984 52.8808 19.7869C52.4691 19.6754 52.0745 19.5416 51.6628 19.4747C51.2511 19.3855 50.8393 19.2963 50.4276 19.2517C50.0159 19.2071 49.6042 19.1402 49.1924 19.1179L48.5749 19.0956L47.9573 19.1179C47.5455 19.1179 47.1338 19.1625 46.7221 19.2071C46.3104 19.2517 45.8986 19.3409 45.4869 19.3855C45.0752 19.4747 44.6635 19.5639 44.2689 19.6754C43.4626 19.8984 42.6735 20.2106 41.9015 20.5898C41.5241 20.7682 41.1467 20.9912 40.7693 21.2142C40.7521 21.2365 40.7178 21.2365 40.7006 21.2588L40.735 21.9279V24.3365C40.7178 25.1393 40.6663 25.9199 40.632 26.7227C40.5977 27.5256 40.5119 28.2839 40.4433 29.0867C40.3918 29.8673 40.2718 30.6478 40.186 31.4061L40.0487 32.5658L39.8772 33.7032C39.6542 35.242 39.3797 36.7362 39.1052 38.2527C38.7964 39.7469 38.5048 41.2411 38.1445 42.7131L37.8872 43.8281L37.6127 44.9209C37.424 45.6569 37.2525 46.3705 37.0637 47.1065L36.4805 49.2698C36.2746 49.9834 36.0688 50.6971 35.8629 51.4107C35.657 52.1244 35.4512 52.838 35.2281 53.5517C35.0051 54.2653 34.7993 54.979 34.5762 55.6703L34.1302 57.0753L34.1645 57.0977C34.4562 57.2761 34.7306 57.4768 35.0223 57.6552C36.2918 58.5473 37.3554 59.4393 38.3332 60.4206C39.3111 61.4019 40.1517 62.4278 40.8893 63.4536C42.3647 65.5277 43.394 67.5572 44.0974 69.2967C44.8179 71.0362 45.2124 72.4858 45.4526 73.4671C45.5727 73.9577 45.6413 74.3592 45.7099 74.6045C45.7614 74.8721 45.7957 75.0059 45.7957 75.0059C45.7957 75.0059 45.5555 74.5376 45.1267 73.6901C44.6635 72.8427 43.9944 71.6384 43.0337 70.2557C42.0731 68.8729 40.8207 67.3341 39.2425 65.8622C38.4362 65.1486 37.5784 64.4349 36.6349 63.7882C35.6913 63.1637 34.6449 62.5616 33.6156 62.1155C33.3068 61.9817 33.0151 61.8702 32.7063 61.7364L32.6034 61.6918C32.3461 62.4724 32.0716 63.2306 31.7971 64.0112C31.3168 65.3939 30.8193 66.7766 30.3046 68.137C29.79 69.4974 29.2925 70.8801 28.7607 72.2182C28.246 73.5786 27.7142 74.9167 27.1652 76.2771C26.6334 77.6152 26.0673 78.9533 25.5183 80.2914C24.4032 82.9453 23.2538 85.5992 22.053 88.1862L21.4869 87.7848C22.5333 85.1086 23.5455 82.3655 24.5062 79.6447C24.9865 78.2843 25.4669 76.9016 25.9301 75.5188C26.4104 74.1361 26.8736 72.7534 27.3196 71.3707C27.7828 69.988 28.2117 68.583 28.6577 67.2003C29.0866 65.7953 29.5155 64.4126 29.9272 63.0076C30.1159 62.3609 30.3046 61.7141 30.4933 61.0674C30.3561 61.045 30.2188 61.0004 30.0816 60.9781C28.8807 60.7328 27.6113 60.5767 26.3418 60.6213C23.7685 60.6659 21.1095 61.3796 18.5876 62.7623C17.3353 63.4759 16.1002 64.3234 14.9508 65.3716C14.3846 65.9068 13.8185 66.4421 13.2867 67.0442L12.8921 67.4902L12.5147 67.9586C12.2574 68.2708 12.0172 68.6053 11.7599 68.9398C11.5026 69.2521 11.2967 69.6312 11.0565 69.9657C10.8335 70.3226 10.6105 70.6794 10.3875 71.0362C9.97576 71.7945 9.56404 72.5527 9.20378 73.3333C9.03223 73.7347 8.84352 74.1362 8.67197 74.5376L8.41464 75.162L8.20878 75.7419C8.14016 75.9426 8.07154 76.0987 8.00292 76.344L7.76275 77.1023L7.64266 77.4814L7.6255 77.526V77.5483L7.59119 77.7044L7.41964 78.3735C6.47611 81.8971 6.20163 85.6884 6.47611 89.3459C6.51042 89.8142 6.57904 90.2603 6.61335 90.7063C6.68197 91.1523 6.75059 91.5984 6.80206 92.0444C6.95645 92.9365 7.12801 93.8286 7.35102 94.676C7.7799 96.4155 8.36318 98.0659 9.03223 99.6047C10.3875 102.705 12.1888 105.359 14.2131 107.41C14.7106 107.923 15.2424 108.414 15.757 108.86C16.0144 109.061 16.2889 109.306 16.5462 109.484C16.8035 109.663 17.0437 109.863 17.3182 110.042C17.627 110.243 17.9186 110.443 18.2274 110.622L18.2789 110.666L18.3132 110.689C18.3132 110.689 18.296 110.689 18.2789 110.666L18.3818 110.733L18.5876 110.845C18.7249 110.934 18.8621 111.001 18.9994 111.09C19.2739 111.246 19.5483 111.38 19.8228 111.514C20.0973 111.648 20.3718 111.804 20.6463 111.893C21.7442 112.406 22.825 112.696 23.8886 112.963C24.9351 113.186 25.9644 113.32 26.9251 113.365C28.8636 113.476 30.5791 113.186 31.9858 112.852C33.4097 112.517 34.4905 112.049 35.2453 111.759C36.0001 111.425 36.3947 111.246 36.3947 111.246C36.3947 111.246 36.0516 111.581 35.4169 112.205C34.7478 112.785 33.77 113.655 32.3804 114.458C31.008 115.283 29.241 116.13 27.0966 116.576C26.8221 116.643 26.5476 116.688 26.2732 116.755C25.9987 116.822 25.707 116.822 25.4326 116.866C24.8493 116.955 24.266 116.955 23.6484 117C23.3396 117 23.0308 117 22.7049 116.978C22.3961 116.978 22.0701 116.955 21.7442 116.911C21.4182 116.866 21.0923 116.844 20.7664 116.799C20.4404 116.732 20.0973 116.688 19.7714 116.621C19.4282 116.576 19.1023 116.465 18.7592 116.376C18.4161 116.286 18.073 116.197 17.7299 116.063C17.5583 115.996 17.3868 115.952 17.2152 115.885L16.9579 115.796L16.8207 115.751C16.855 115.773 16.7349 115.707 16.7349 115.707L16.7006 115.684L16.632 115.662C16.3232 115.528 15.9972 115.394 15.6713 115.26C15.311 115.082 14.9508 114.904 14.5733 114.703C14.2131 114.502 13.87 114.302 13.5269 114.078C12.8407 113.632 12.1373 113.164 11.4511 112.629C8.72343 110.466 6.15016 107.41 4.17732 103.597C3.18232 101.701 2.34172 99.6047 1.67267 97.3745C1.00362 95.1666 0.506116 92.8027 0.248789 90.3941C-0.00853824 87.9632 -0.0771585 85.4877 0.0943931 83.0122C0.265945 80.5367 0.677668 78.0836 1.2781 75.7196L1.51827 74.8498L1.58689 74.6268L1.63836 74.4261L1.67267 74.3369L2.03293 73.1995C2.1187 72.9319 2.23879 72.6196 2.34172 72.3297C2.44465 72.0398 2.56473 71.7276 2.66767 71.4376L3.01077 70.6125C3.23379 70.0549 3.49111 69.542 3.73129 69.0068C4.72628 66.8881 5.9443 64.9701 7.2824 63.2529C7.6255 62.8292 7.95145 62.4055 8.31171 62.004L8.84352 61.4019L9.39249 60.8443C10.1302 60.0861 10.9021 59.417 11.6741 58.7926C13.2352 57.5437 14.8821 56.5401 16.5633 55.8264C19.9257 54.3545 23.3911 53.9085 26.5648 54.3322C28.1602 54.5553 29.6699 54.9567 31.0938 55.5365C31.2653 55.6034 31.454 55.6703 31.6256 55.7595C31.7285 55.8041 31.8314 55.8488 31.9344 55.9157L32.2946 54.5553C32.4833 53.8416 32.6549 53.1279 32.8436 52.4143C33.0323 51.7006 33.2038 50.987 33.3754 50.2733L33.8729 48.1324L34.3532 45.9691C34.5076 45.2554 34.6449 44.5195 34.7993 43.8058L35.0223 42.7354L35.2281 41.6426C35.5026 40.193 35.7428 38.7434 35.9658 37.2937C36.1717 35.8441 36.3775 34.3945 36.5319 32.9449L36.652 31.8521L36.7378 30.7593C36.7893 30.0234 36.875 29.3097 36.8922 28.5961C36.9094 27.8824 36.978 27.1465 36.978 26.4328C36.978 25.7192 36.9951 25.0055 36.978 24.2918L36.8922 22.1732L36.7035 20.0991L36.5491 18.5603L37.4926 17.7128L37.6985 17.5121L37.87 17.356C37.9901 17.2445 38.1102 17.1553 38.2131 17.0661C38.4362 16.8877 38.6763 16.7316 38.8993 16.5532C39.3625 16.2409 39.8257 15.9287 40.2889 15.6834C41.1124 15.2151 41.9701 14.8136 42.8279 14.4791C43.2053 14.0331 43.5999 13.587 44.0116 13.1187C44.2003 12.8957 44.4062 12.6727 44.612 12.4496C44.8179 12.2266 45.0237 12.0036 45.2296 11.7806C45.6413 11.3346 46.0874 10.8885 46.5334 10.4425C46.9794 9.99646 47.4426 9.55043 47.9058 9.08209C48.3861 8.63606 48.8665 8.19002 49.364 7.76629C49.8615 7.34256 50.359 6.89653 50.8736 6.4951L51.6456 5.87064L52.4348 5.2685C53.4812 4.46564 54.5792 3.70738 55.6428 2.97143C56.1917 2.6369 56.7407 2.28007 57.2897 1.96785C57.8386 1.67793 58.3876 1.3657 58.9537 1.14269C60.0688 0.674351 61.1839 0.362125 62.2647 0.206013C63.3454 0.0275994 64.3747 -0.0170026 65.3183 0.00529907C65.7986 0.0276008 66.2447 0.0722042 66.6735 0.116808C67.1024 0.206014 67.5141 0.272921 67.8916 0.362128C68.269 0.429033 68.6121 0.562842 68.938 0.67435C69.264 0.785859 69.5556 0.897367 69.8129 1.00888C70.0703 1.12038 70.2933 1.2542 70.4991 1.3657C70.6878 1.47721 70.8594 1.56642 70.9966 1.65562C71.2711 1.81174 71.4084 1.90094 71.4084 1.90094L71.3397 2.34698C71.3397 2.34698 71.1853 2.39158 70.8937 2.43618C70.6021 2.50309 70.2075 2.54769 69.6928 2.6592C69.4355 2.72611 69.1439 2.77071 68.8522 2.83761C68.5434 2.90452 68.2175 2.94912 67.8744 3.06063C67.5313 3.14984 67.171 3.23904 66.7765 3.32825C66.3991 3.43976 66.0045 3.57357 65.5928 3.68508C64.7693 3.9527 63.8773 4.24262 62.968 4.57715C62.0416 4.93397 61.081 5.31311 60.0688 5.71454C59.5541 5.89295 59.0566 6.11596 58.5248 6.31668C57.993 6.51739 57.4784 6.74041 56.9294 6.94113C56.3976 7.18645 55.8486 7.40946 55.3168 7.67708C54.785 7.9447 54.2532 8.23462 53.7214 8.54685L52.9323 9.01518L52.1603 9.50582C51.6456 9.81805 51.131 10.1749 50.6335 10.5317C50.1188 10.8662 49.6385 11.2454 49.141 11.6022C48.6606 11.959 48.1631 12.3158 47.6999 12.695C47.3397 12.9849 46.9794 13.2525 46.6363 13.5424C46.9966 13.4978 47.3397 13.4532 47.6999 13.4309C47.9573 13.4086 48.2146 13.3863 48.4548 13.364H49.2267C49.7414 13.3417 50.2389 13.3863 50.7536 13.4309C51.2682 13.4532 51.7657 13.5424 52.2632 13.6093C52.7779 13.6762 53.2582 13.81 53.7729 13.9216C54.2704 14.0331 54.7679 14.1892 55.2482 14.3453L55.9859 14.5906L56.7064 14.8805C57.1867 15.0812 57.6671 15.2597 58.1303 15.505C58.5935 15.728 59.0738 15.951 59.537 16.2186L60.9094 17.0215C61.3726 17.2891 61.8015 17.6013 62.2304 17.8913L62.8994 18.3373L63.5341 18.8279L64.8036 19.8092L66.0216 20.8797L66.6392 21.4149L67.2225 21.9725L68.3891 23.1099C68.7836 23.489 69.1439 23.9127 69.5213 24.3142C69.8987 24.7156 70.2761 25.117 70.6364 25.5407L71.7172 26.8119C72.0603 27.2357 72.4548 27.6594 72.7808 28.1054L73.8101 29.4212C74.1532 29.8673 74.4963 30.291 74.8222 30.7593C75.4741 31.6737 76.1432 32.5881 76.7779 33.5247L78.6478 36.3571L78.8537 36.7585C78.8537 36.7585 78.8537 36.7362 78.8537 36.7585L78.8709 36.8031L78.9223 36.8923L79.0424 37.1153C79.1282 37.2714 79.214 37.4052 79.3169 37.5614C79.5056 37.8736 79.7115 38.1635 79.9173 38.4757C80.329 39.0779 80.7751 39.6577 81.2383 40.2153C82.1646 41.308 83.1596 42.3339 84.2233 43.2483C85.2869 44.1404 86.402 44.9209 87.5514 45.59C88.7008 46.259 89.8845 46.8166 91.1196 47.2403L91.5828 47.4187C91.7372 47.4633 91.8916 47.5079 92.046 47.5525L92.9724 47.8201C93.6071 47.954 94.2247 48.1324 94.8594 48.1993C95.1854 48.2439 95.4942 48.3108 95.8201 48.3554L96.7808 48.4446L97.2612 48.4892L97.7415 48.5115L98.7194 48.5338C99.0453 48.5561 99.3713 48.5115 99.6972 48.5115L100.692 48.4669C101.344 48.3777 102.013 48.3331 102.682 48.2439C103.351 48.1101 104.003 48.0209 104.672 47.887C105.341 47.7309 106.01 47.5971 106.662 47.4187C107.314 47.218 107.983 47.0173 108.652 46.8166L110.642 46.1029L111.706 45.7015L112.804 45.3001C113.541 45.0547 114.262 44.8094 115 44.5864C116.458 44.1404 117.933 43.7835 119.426 43.4713C120.901 43.1591 122.393 42.9584 123.903 42.8023C125.396 42.6461 126.888 42.5792 128.398 42.6015C129.135 42.6238 129.907 42.6461 130.628 42.6907C131.383 42.7354 132.12 42.8023 132.858 42.8915C134.351 43.0699 135.843 43.3598 137.301 43.8281C138.039 44.0735 138.777 44.3634 139.48 44.7425C140.218 45.077 140.904 45.5677 141.487 46.2813Z" fill="#F71708"/>
<path d="M73.9473 41.1073L73.8272 40.9289L73.7415 40.7282L73.9473 41.1073Z" fill="#F71708"/>
<path d="M154.113 86.023C153.273 86.2237 152.415 86.4021 151.574 86.5805L149.035 87.0711C147.337 87.3611 145.639 87.651 143.958 87.9186C143.117 88.0524 142.259 88.1639 141.419 88.2754C140.578 88.4092 139.72 88.5207 138.88 88.6099C137.181 88.833 135.483 89.0337 133.802 89.2121C132.103 89.3905 130.405 89.5689 128.724 89.7027C127.025 89.8588 125.327 89.9926 123.646 90.1265C120.249 90.3718 116.87 90.5948 113.473 90.684C111.774 90.7509 110.076 90.7732 108.378 90.7732H108.138C108.498 92.8473 109.064 94.8544 109.784 96.7278C109.939 97.1292 110.128 97.5306 110.282 97.9321C110.471 98.3335 110.659 98.7126 110.831 99.1141C111.208 99.8723 111.62 100.631 112.049 101.344C112.924 102.749 113.919 104.043 114.965 105.18C117.075 107.455 119.494 109.105 121.93 110.086C122.548 110.332 123.165 110.555 123.766 110.711C124.075 110.778 124.384 110.889 124.675 110.934C124.967 110.979 125.241 111.045 125.55 111.112C125.893 111.157 126.219 111.202 126.545 111.246H126.614H126.648H126.631H126.751L126.974 111.268C127.128 111.268 127.266 111.291 127.42 111.291C127.712 111.313 128.02 111.313 128.312 111.313C128.604 111.291 128.895 111.335 129.187 111.291C130.353 111.246 131.451 111.023 132.498 110.8C133.544 110.533 134.539 110.176 135.449 109.774C137.284 108.971 138.828 107.923 140.046 106.964C141.281 106.005 142.173 105.069 142.791 104.444C143.357 103.82 143.683 103.463 143.717 103.441C143.7 103.507 143.46 103.954 143.065 104.779C142.602 105.626 141.916 106.897 140.835 108.28C139.772 109.685 138.348 111.291 136.478 112.696C136.238 112.874 135.998 113.053 135.757 113.231C135.517 113.409 135.26 113.566 134.985 113.722C134.471 114.078 133.922 114.346 133.356 114.658C133.064 114.814 132.772 114.948 132.481 115.06C132.189 115.194 131.88 115.327 131.572 115.439C131.263 115.55 130.937 115.684 130.628 115.773C130.302 115.863 129.976 115.974 129.633 116.063C129.307 116.175 128.964 116.219 128.621 116.286C128.278 116.353 127.935 116.42 127.574 116.465C127.403 116.487 127.214 116.509 127.043 116.532L126.768 116.554L126.631 116.576H126.545H126.511H126.442C126.116 116.599 125.773 116.621 125.43 116.643C125.053 116.643 124.658 116.643 124.263 116.621C123.869 116.599 123.491 116.554 123.114 116.532C122.342 116.442 121.57 116.309 120.781 116.13C117.642 115.372 114.399 113.699 111.517 111.023C110.059 109.707 108.704 108.124 107.486 106.362C106.251 104.6 105.153 102.615 104.261 100.474C103.368 98.3335 102.614 96.0364 102.116 93.6501C101.91 92.6689 101.722 91.643 101.601 90.6394C100.469 90.6171 99.3198 90.5725 98.1876 90.5279L93.0925 90.3718C91.3941 90.3272 89.6958 90.2603 87.9974 90.238L82.9023 90.1488L72.7636 89.9927L73.0038 89.9704L72.7122 89.9927H72.7465L70.2418 90.3049C69.7958 90.3718 69.3326 90.3941 68.8694 90.4164L67.4798 90.5056L66.7936 90.5502H66.0903L64.6836 90.5279C64.2204 90.5279 63.74 90.4833 63.2768 90.4387L61.8701 90.3272L60.4462 90.1042C60.2061 90.0596 59.9659 90.0373 59.7429 89.9927L59.0224 89.8142C58.542 89.6804 58.0788 89.5912 57.5985 89.4128L56.8951 89.1675C56.6549 89.0783 56.4148 88.9891 56.1918 88.8776L55.4884 88.543C55.3683 88.4761 55.2482 88.4315 55.1281 88.3646L54.785 88.1639L54.0817 87.7402L53.3955 87.2272C53.1724 87.0711 52.9494 86.8481 52.7264 86.6474C52.6235 86.5359 52.5034 86.4467 52.4005 86.3352L52.0745 85.9783C51.8515 85.7553 51.6456 85.4431 51.4398 85.1532C51.3368 84.9971 51.2339 84.8187 51.131 84.6402C51.0795 84.5733 51.0281 84.4395 50.9766 84.328L50.908 84.1719C50.8908 84.1273 50.8393 84.0158 50.805 83.9266L50.8737 84.0827C50.7193 83.7036 50.5649 83.3245 50.4276 82.9453C50.2904 82.5439 50.1531 82.1648 50.0331 81.741C49.913 81.3173 49.81 80.9159 49.7243 80.4698C49.6728 80.2468 49.6385 80.0461 49.6042 79.8231L49.5184 79.154C49.4841 78.931 49.4669 78.708 49.4498 78.4627C49.4326 78.2397 49.3983 78.0166 49.4155 77.7713V77.08C49.4155 76.8569 49.4326 76.6116 49.4498 76.3886C49.4498 76.1656 49.4841 75.9203 49.5184 75.6973C49.5527 75.4743 49.5699 75.2289 49.6213 75.0059C49.69 74.5599 49.81 74.1138 49.9301 73.6678L50.136 73.0211C50.2046 72.8204 50.2904 72.6196 50.3762 72.3966C50.5477 71.9952 50.7193 71.6161 50.9251 71.2369C51.0109 71.0585 51.131 70.8801 51.2339 70.7017C51.3368 70.5233 51.4398 70.3672 51.5599 70.1887C51.6628 70.0103 51.7829 69.8542 51.903 69.6981C52.0231 69.542 52.126 69.3859 52.2461 69.2521C52.4862 68.9622 52.7264 68.6722 52.9837 68.4046C53.2411 68.137 53.4984 67.8917 53.7729 67.6463C54.0474 67.4233 54.3047 67.178 54.5963 66.9773C54.7336 66.8658 54.888 66.7766 55.0252 66.6651C55.1796 66.5536 55.2997 66.4867 55.5056 66.3751L55.6599 66.2859L55.7629 66.2636C56.2604 66.1521 56.7579 66.0629 57.2554 65.9737C57.7529 65.9068 58.2504 65.8176 58.7479 65.7953C59.2454 65.773 59.7429 65.7284 60.2575 65.7284H61.0124L61.7672 65.7953C62.2647 65.8176 62.7622 65.9291 63.2768 65.996C63.5342 66.0406 63.7743 66.1075 64.0145 66.1744C64.2718 66.2413 64.512 66.2859 64.7522 66.3751C64.9924 66.4644 65.2497 66.5313 65.4898 66.6205L66.2104 66.9104C66.4505 66.9996 66.6907 67.1334 66.9137 67.2449C67.1539 67.3564 67.3941 67.4679 67.6171 67.6241C68.0803 67.8694 68.5263 68.1816 68.9723 68.4715L69.6242 68.9622C69.8473 69.1183 70.0531 69.319 70.259 69.4751C70.6707 69.8319 71.0824 70.211 71.4598 70.6348C71.6657 70.8355 71.8373 71.0362 72.026 71.2592C72.2147 71.4599 72.3862 71.683 72.5749 71.906C72.9352 72.352 73.2783 72.8203 73.6042 73.311C73.9302 73.7793 74.239 74.2923 74.5306 74.8052C74.8223 75.3181 75.0967 75.8534 75.3541 76.3886C75.6114 76.9462 75.8516 77.4814 76.0574 78.0835L75.4742 78.4404C75.2511 77.9274 74.9938 77.4145 74.7193 76.9239C74.4448 76.4332 74.1532 75.9649 73.8444 75.4965C73.5356 75.0505 73.2097 74.6045 72.8837 74.1807C72.5406 73.757 72.1975 73.3556 71.8373 72.9765C71.6657 72.7757 71.477 72.5973 71.2883 72.4189C71.0996 72.2405 70.9109 72.0621 70.7222 71.906C70.3448 71.5715 69.9502 71.2592 69.5385 70.9693C69.3326 70.8355 69.1439 70.6794 68.938 70.5456L68.3205 70.1664C67.8916 69.9434 67.4798 69.6981 67.051 69.5197C66.8451 69.4082 66.6221 69.3413 66.3991 69.2521C66.1761 69.1629 65.9702 69.0737 65.7472 69.0068L65.0781 68.806C64.8551 68.7391 64.6321 68.6945 64.4091 68.6499C64.1861 68.6053 63.963 68.5607 63.74 68.5384C63.517 68.5161 63.294 68.4715 63.0538 68.4492C62.5906 68.4269 62.1446 68.36 61.6814 68.3823H60.9952L60.309 68.4492C59.863 68.4715 59.3998 68.5607 58.9537 68.6276C58.5077 68.6945 58.0445 68.8283 57.5985 68.9175C57.2039 69.0291 56.8093 69.1406 56.4319 69.2521C56.4662 69.2298 56.5006 69.2075 56.5177 69.1852L56.2604 69.2967C56.3118 69.2744 56.3633 69.2744 56.4319 69.2521C56.3633 69.2967 56.2775 69.3636 56.2089 69.4305C56.106 69.5197 55.9859 69.6089 55.883 69.6981C55.6599 69.8765 55.4541 70.0995 55.2482 70.3003C55.0424 70.5233 54.8537 70.724 54.6649 70.947C54.4762 71.17 54.2875 71.4153 54.1331 71.6384C54.0474 71.7499 53.9616 71.8837 53.893 72.0175C53.8072 72.1513 53.7386 72.2628 53.6699 72.3966C53.6013 72.5304 53.5156 72.6419 53.4641 72.7757C53.3955 72.9095 53.3268 73.0434 53.2754 73.1772C53.1553 73.4448 53.0524 73.7124 52.9494 74.0023C52.898 74.1361 52.8637 74.27 52.8122 74.4261L52.7093 74.8498C52.6578 75.1397 52.5892 75.4296 52.572 75.7196C52.5549 75.8534 52.5377 76.0095 52.5377 76.1433C52.5206 76.2994 52.5206 76.4332 52.5206 76.5893V77.0354L52.5549 77.4814C52.5549 77.6375 52.5892 77.7713 52.6063 77.9274C52.6235 78.0836 52.6406 78.2174 52.675 78.3735L52.7607 78.8195C52.795 78.9756 52.8465 79.1094 52.8808 79.2655C52.9494 79.5555 53.0524 79.8454 53.1553 80.1353C53.2411 80.4252 53.3783 80.7151 53.4812 81.0051L53.8758 81.8525L53.9444 82.0309C53.9444 82.0086 53.9101 81.964 53.9101 81.9417L53.9273 81.964C53.9444 81.9863 53.9444 81.9863 53.9616 82.0086C54.0131 82.0756 54.0302 82.1202 54.0817 82.1871C54.1846 82.2986 54.2875 82.4324 54.4248 82.5662L54.6135 82.7446L54.8365 82.923C54.9909 83.0345 55.111 83.1683 55.2825 83.2575L55.7629 83.5698L56.2947 83.8374C56.6378 84.0381 57.0324 84.1496 57.3926 84.3057C57.5813 84.3949 57.77 84.4395 57.9759 84.4841L58.5592 84.6402C58.9537 84.7741 59.3655 84.7964 59.76 84.8856L60.3605 84.9971C60.5663 85.0194 60.7722 85.0417 60.978 85.064L62.2304 85.1755H63.4999C63.9287 85.1755 64.3405 85.1978 64.7693 85.1532L66.0388 85.064L66.6736 85.0194L67.3083 84.9302L68.5949 84.7741C69.0238 84.7294 69.4527 84.6849 69.8816 84.5733L72.4548 84.105L72.5578 84.0827H72.7465L82.9195 83.5698L88.0146 83.3021C89.7129 83.2129 91.4113 83.0791 93.1097 82.9899L98.1876 82.6554C99.2684 82.5885 100.349 82.4993 101.413 82.4324C101.43 82.1871 101.447 81.9417 101.464 81.6964L101.55 80.7821C101.601 80.1576 101.704 79.5555 101.79 78.9533C102.133 76.5224 102.751 74.1584 103.54 71.9283C103.746 71.3707 103.935 70.8132 104.158 70.2779L104.484 69.4751L104.844 68.6945C105.324 67.6687 105.856 66.6874 106.422 65.7284C107.537 63.8328 108.807 62.1378 110.196 60.6882C112.924 57.7444 116.063 55.7595 119.151 54.6891C120.695 54.1761 122.239 53.8416 123.714 53.7301C123.903 53.7078 124.075 53.7078 124.263 53.6855C124.452 53.6855 124.624 53.6855 124.812 53.6855C125.173 53.6855 125.533 53.6855 125.893 53.7078C126.065 53.7078 126.253 53.7301 126.425 53.7301L126.682 53.7524H126.768H126.802H126.871L126.991 53.7747C127.317 53.8193 127.626 53.8639 127.935 53.9085C129.358 54.1538 130.594 54.5106 131.777 54.979C132.944 55.4473 134.025 56.0272 135.003 56.6516C136.941 57.9228 138.468 59.3501 139.6 60.6436C140.75 61.9371 141.504 63.1191 142.019 63.922C142.276 64.3234 142.448 64.6579 142.568 64.8809C142.671 65.0817 142.74 65.1709 142.74 65.1932C142.705 65.1486 142.362 64.8363 141.762 64.2788C141.11 63.699 140.149 62.8738 138.88 62.0263C137.61 61.1789 135.998 60.3091 134.128 59.6623C133.184 59.3724 132.189 59.0825 131.125 58.9264C130.079 58.7703 128.93 58.7034 127.832 58.748C127.523 58.7703 127.197 58.7926 126.888 58.8149H126.768H126.699H126.665C126.751 58.8149 126.699 58.8149 126.682 58.8149L126.459 58.8372C126.305 58.8595 126.168 58.8818 126.013 58.9041C125.722 58.9264 125.413 58.9933 125.121 59.0602C124.967 59.0825 124.83 59.1271 124.675 59.1494C124.521 59.194 124.383 59.2386 124.229 59.2609C123.028 59.5731 121.81 60.0192 120.627 60.6436C118.242 61.8702 115.943 63.7436 113.953 66.219C112.975 67.4679 112.049 68.806 111.26 70.3226C110.865 71.0808 110.488 71.8391 110.162 72.6642L109.905 73.2664L109.664 73.8908C109.51 74.2923 109.373 74.716 109.236 75.1397C109.081 75.5635 108.978 76.0095 108.858 76.4332C108.738 76.8793 108.635 77.303 108.532 77.749C108.343 78.6411 108.172 79.5332 108.052 80.4475C108 80.9159 107.915 81.3619 107.897 81.8302L107.88 82.0756C108.035 82.0756 108.189 82.0756 108.361 82.0533C110.059 81.9863 111.757 81.964 113.456 81.964C116.852 81.9417 120.249 82.0533 123.646 82.1648C125.344 82.2317 127.043 82.2986 128.741 82.4101C130.439 82.4993 132.138 82.6108 133.836 82.7223C135.534 82.8561 137.233 82.9676 138.931 83.146C139.789 83.2129 140.629 83.3021 141.47 83.3914C142.328 83.4806 143.168 83.5698 144.026 83.659C145.725 83.8374 147.423 84.0827 149.121 84.3057L151.677 84.7071C152.535 84.8633 153.376 84.9971 154.233 85.1755L154.113 86.023Z" fill="#F71708"/>
<path d="M56.4663 69.2744C56.4491 69.2967 56.4148 69.319 56.3805 69.3413C56.329 69.3636 56.2775 69.3636 56.2089 69.3859L56.4663 69.2744Z" fill="#F71708"/>
<path d="M73.0038 90.0149L72.7637 90.0369H72.7122L73.0038 90.0149Z" fill="#F71708"/>
</svg>
