<svg width="155" height="90" viewBox="0 0 155 90" fill="none" xmlns="http://www.w3.org/2000/svg">
<path d="M141.487 35.601L141.093 36.1157C139.892 35.4981 138.468 35.3952 137.078 35.3437C135.672 35.3265 134.265 35.3952 132.858 35.5324C132.155 35.601 131.451 35.6868 130.748 35.7726C130.028 35.8583 129.341 35.9613 128.638 36.0814C127.248 36.3044 125.859 36.5617 124.486 36.8705C123.114 37.1793 121.759 37.5395 120.403 37.917C119.065 38.3115 117.727 38.7233 116.406 39.1864C115.754 39.4095 115.085 39.6668 114.451 39.907L113.49 40.2844L112.495 40.6789L110.351 41.4852C109.63 41.7254 108.892 41.9484 108.155 42.1714C107.417 42.3945 106.662 42.566 105.907 42.7719C105.53 42.8748 105.153 42.9434 104.775 43.012L103.626 43.2351C102.854 43.3723 102.082 43.4752 101.293 43.5782C100.503 43.6468 99.7144 43.7326 98.9252 43.7669L97.7244 43.8012L97.1239 43.8183L96.5235 43.8012L95.3226 43.7497C94.9281 43.7154 94.5163 43.6811 94.1218 43.6468C93.3155 43.5953 92.5264 43.4238 91.7201 43.3208C91.3255 43.2351 90.9309 43.1493 90.5364 43.0635C90.3305 43.012 90.1418 42.9777 89.9359 42.9263L89.3526 42.7547C88.9581 42.6346 88.5635 42.5489 88.1861 42.4116L87.0196 42.017C86.2647 41.7083 85.4927 41.4166 84.7551 41.0564C83.2797 40.353 81.8558 39.5124 80.5349 38.5517C79.214 37.591 77.9616 36.5274 76.8465 35.3437C76.2804 34.7604 75.7315 34.1428 75.2168 33.4909C74.9595 33.165 74.7022 32.839 74.462 32.4788C74.3419 32.3072 74.2218 32.1185 74.1017 31.947L73.913 31.6553L73.8272 31.4838L73.9302 31.6382L73.7243 31.3294L73.8272 31.4838L72.3347 29.5109C71.7858 28.8076 71.2197 28.1385 70.6535 27.4523C70.3791 27.1092 70.0703 26.7833 69.7786 26.4573L68.9037 25.4795C68.3033 24.8276 67.6685 24.2272 67.0681 23.5924C66.7593 23.2836 66.4162 23.0091 66.1074 22.7003C65.7815 22.4087 65.4727 22.0999 65.1296 21.8254L64.1174 21.002L63.6199 20.5903L63.1053 20.2128L62.0588 19.4409L60.978 18.7375L60.4462 18.3944L59.8973 18.0684C59.5198 17.8626 59.1596 17.6396 58.7822 17.4337L57.6499 16.8676C57.2725 16.6789 56.8779 16.5245 56.4834 16.3701C56.106 16.1985 55.6942 16.0613 55.2997 15.9241L54.6992 15.7182L54.0988 15.5466C53.6871 15.4266 53.2925 15.3065 52.8808 15.2207C52.4691 15.1349 52.0745 15.032 51.6628 14.9805C51.2511 14.9119 50.8393 14.8433 50.4276 14.809C50.0159 14.7747 49.6042 14.7232 49.1924 14.706L48.5749 14.6889L47.9573 14.706C47.5455 14.706 47.1338 14.7404 46.7221 14.7747C46.3104 14.809 45.8986 14.8776 45.4869 14.9119C45.0752 14.9805 44.6635 15.0491 44.2689 15.1349C43.4626 15.3065 42.6735 15.5466 41.9015 15.8383C41.5241 15.9755 41.1467 16.1471 40.7693 16.3186C40.7521 16.3358 40.7178 16.3358 40.7006 16.3529L40.735 16.8676V18.7203C40.7178 19.3379 40.6663 19.9384 40.632 20.5559C40.5977 21.1735 40.5119 21.7568 40.4433 22.3744C40.3918 22.9748 40.2718 23.5753 40.186 24.1585L40.0487 25.0506L39.8772 25.9255C39.6542 27.1092 39.3797 28.2586 39.1052 29.4252C38.7964 30.5746 38.5048 31.724 38.1445 32.8562L37.8872 33.714L37.6127 34.5546C37.424 35.1207 37.2525 35.6696 37.0637 36.2358L36.4805 37.8998C36.2746 38.4488 36.0688 38.9977 35.8629 39.5467C35.657 40.0957 35.4512 40.6446 35.2281 41.1936C35.0051 41.7426 34.7993 42.2915 34.5762 42.8233L34.1302 43.9041L34.1645 43.9213C34.4562 44.0585 34.7306 44.2129 35.0223 44.3501C36.2918 45.0364 37.3554 45.7226 38.3332 46.4774C39.3111 47.2322 40.1517 48.0214 40.8893 48.8105C42.3647 50.4059 43.394 51.967 44.0974 53.3051C44.8179 54.6432 45.2124 55.7583 45.4526 56.5132C45.5727 56.8906 45.6413 57.1994 45.7099 57.3881C45.7614 57.5939 45.7957 57.6969 45.7957 57.6969C45.7957 57.6969 45.5555 57.3366 45.1267 56.6847C44.6635 56.0328 43.9944 55.1064 43.0337 54.0428C42.0731 52.9792 40.8207 51.7955 39.2425 50.6632C38.4362 50.1143 37.5784 49.5653 36.6349 49.0678C35.6913 48.5875 34.6449 48.1243 33.6156 47.7812C33.3068 47.6782 33.0151 47.5925 32.7063 47.4895L32.6034 47.4552C32.3461 48.0557 32.0716 48.6389 31.7971 49.2394C31.3168 50.303 30.8193 51.3666 30.3046 52.4131C29.79 53.4595 29.2925 54.5232 28.7607 55.5525C28.246 56.5989 27.7142 57.6282 27.1652 58.6747C26.6334 59.704 26.0673 60.7333 25.5183 61.7626C24.4032 63.8041 23.2538 65.8456 22.053 67.8356L21.4869 67.5268C22.5333 65.4681 23.5455 63.3581 24.5062 61.2651C24.9865 60.2187 25.4669 59.155 25.9301 58.0914C26.4104 57.0278 26.8736 55.9642 27.3196 54.9006C27.7828 53.8369 28.2117 52.7562 28.6577 51.6926C29.0866 50.6118 29.5155 49.5482 29.9272 48.4674C30.1159 47.9699 30.3046 47.4724 30.4933 46.9749C30.3561 46.9577 30.2188 46.9234 30.0816 46.9063C28.8807 46.7176 27.6113 46.5975 26.3418 46.6318C23.7685 46.6661 21.1095 47.2151 18.5876 48.2787C17.3353 48.8276 16.1002 49.4795 14.9508 50.2858C14.3846 50.6975 13.8185 51.1093 13.2867 51.5725L12.8921 51.9156L12.5147 52.2758C12.2574 52.516 12.0172 52.7733 11.7599 53.0307C11.5026 53.2708 11.2967 53.5625 11.0565 53.8198C10.8335 54.0943 10.6105 54.3688 10.3875 54.6432C9.97576 55.2265 9.56404 55.8098 9.20378 56.4102C9.03223 56.719 8.84352 57.0278 8.67197 57.3366L8.41464 57.8169L8.20878 58.263C8.14016 58.4174 8.07154 58.5375 8.00292 58.7262L7.76275 59.3094L7.64266 59.6011L7.6255 59.6354V59.6525L7.59119 59.7726L7.41964 60.2873C6.47611 62.9978 6.20163 65.9142 6.47611 68.7276C6.51042 69.0879 6.57904 69.431 6.61335 69.7741C6.68197 70.1172 6.75059 70.4603 6.80206 70.8034C6.95645 71.4896 7.12801 72.1758 7.35102 72.8277C7.7799 74.1658 8.36318 75.4353 9.03223 76.619C10.3875 79.0036 12.1888 81.045 14.2131 82.6233C14.7106 83.0179 15.2424 83.3953 15.757 83.7384C16.0144 83.8928 16.2889 84.0815 16.5462 84.2187C16.8035 84.356 17.0437 84.5104 17.3182 84.6476C17.627 84.802 17.9186 84.9564 18.2274 85.0936L18.2789 85.1279L18.3132 85.1451C18.3132 85.1451 18.296 85.1451 18.2789 85.1279L18.3818 85.1794L18.5876 85.2652C18.7249 85.3338 18.8621 85.3853 18.9994 85.4539C19.2739 85.574 19.5483 85.6769 19.8228 85.7798C20.0973 85.8828 20.3718 86.0029 20.6463 86.0715C21.7442 86.466 22.825 86.6891 23.8886 86.8949C24.9351 87.0665 25.9644 87.1694 26.9251 87.2037C28.8636 87.2895 30.5791 87.0665 31.9858 86.8092C33.4097 86.5518 34.4905 86.1916 35.2453 85.9685C36.0001 85.7112 36.3947 85.574 36.3947 85.574C36.3947 85.574 36.0516 85.8313 35.4169 86.3116C34.7478 86.7577 33.77 87.4267 32.3804 88.0443C31.008 88.6791 29.241 89.331 27.0966 89.6741C26.8221 89.7255 26.5476 89.7598 26.2732 89.8113C25.9987 89.8628 25.707 89.8628 25.4326 89.8971C24.8493 89.9657 24.266 89.9657 23.6484 90C23.3396 90 23.0308 90 22.7049 89.9828C22.3961 89.9828 22.0701 89.9657 21.7442 89.9314C21.4182 89.8971 21.0923 89.8799 20.7664 89.8456C20.4404 89.7941 20.0973 89.7598 19.7714 89.7084C19.4282 89.6741 19.1023 89.5883 18.7592 89.5197C18.4161 89.451 18.073 89.3824 17.7299 89.2795C17.5583 89.228 17.3868 89.1937 17.2152 89.1422L16.9579 89.0736L16.8207 89.0393C16.855 89.0565 16.7349 89.005 16.7349 89.005L16.7006 88.9879L16.632 88.9707C16.3232 88.8678 15.9972 88.7648 15.6713 88.6619C15.311 88.5247 14.9508 88.3874 14.5733 88.233C14.2131 88.0786 13.87 87.9242 13.5269 87.7527C12.8407 87.4096 12.1373 87.0493 11.4511 86.6376C8.72343 84.9735 6.15016 82.6233 4.17732 79.6898C3.18232 78.2316 2.34172 76.619 1.67267 74.9035C1.00362 73.2051 0.506116 71.3867 0.248789 69.5339C-0.00853824 67.664 -0.0771585 65.7598 0.0943931 63.8556C0.265945 61.9513 0.677668 60.0643 1.2781 58.2458L1.51827 57.5768L1.58689 57.4052L1.63836 57.2508L1.67267 57.1822L2.03293 56.3073C2.1187 56.1014 2.23879 55.8613 2.34172 55.6382C2.44465 55.4152 2.56473 55.175 2.66767 54.952L3.01077 54.3173C3.23379 53.8884 3.49111 53.4938 3.73129 53.0821C4.72628 51.4524 5.9443 49.977 7.2824 48.6561C7.6255 48.3301 7.95145 48.0042 8.31171 47.6954L8.84352 47.2322L9.39249 46.8033C10.1302 46.2201 10.9021 45.7054 11.6741 45.2251C13.2352 44.2644 14.8821 43.4924 16.5633 42.9434C19.9257 41.8112 23.3911 41.4681 26.5648 41.794C28.1602 41.9656 29.6699 42.2744 31.0938 42.7204C31.2653 42.7719 31.454 42.8233 31.6256 42.892C31.7285 42.9263 31.8314 42.9606 31.9344 43.012L32.2946 41.9656C32.4833 41.4166 32.6549 40.8676 32.8436 40.3187C33.0323 39.7697 33.2038 39.2208 33.3754 38.6718L33.8729 37.0249L34.3532 35.3608C34.5076 34.8119 34.6449 34.2458 34.7993 33.6968L35.0223 32.8733L35.2281 32.0327C35.5026 30.9177 35.7428 29.8026 35.9658 28.6875C36.1717 27.5724 36.3775 26.4573 36.5319 25.3422L36.652 24.5016L36.7378 23.661C36.7893 23.0949 36.875 22.5459 36.8922 21.997C36.9094 21.448 36.978 20.8819 36.978 20.3329C36.978 19.784 36.9951 19.235 36.978 18.686L36.8922 17.0563L36.7035 15.4609L36.5491 14.2772L37.4926 13.6253L37.6985 13.4709L37.87 13.3508C37.9901 13.265 38.1102 13.1964 38.2131 13.1278C38.4362 12.9905 38.6763 12.8704 38.8993 12.7332C39.3625 12.493 39.8257 12.2529 40.2889 12.0641C41.1124 11.7039 41.9701 11.3951 42.8279 11.1378C43.2053 10.7947 43.5999 10.4516 44.0116 10.0913C44.2003 9.91975 44.4062 9.7482 44.612 9.57665C44.8179 9.4051 45.0237 9.23355 45.2296 9.06199C45.6413 8.71889 46.0874 8.37579 46.5334 8.03269C46.9794 7.68958 47.4426 7.34648 47.9058 6.98623C48.3861 6.64312 48.8665 6.30002 49.364 5.97407C49.8615 5.64812 50.359 5.30502 50.8736 4.99623L51.6456 4.51588L52.4348 4.05269C53.4812 3.43511 54.5792 2.85183 55.6428 2.28571C56.1917 2.02838 56.7407 1.7539 57.2897 1.51373C57.8386 1.29071 58.3876 1.05054 58.9537 0.87899C60.0688 0.518732 61.1839 0.278558 62.2647 0.158472C63.3454 0.0212303 64.3747 -0.0130789 65.3183 0.00407621C65.7986 0.0212314 66.2447 0.0555417 66.6735 0.089852C67.1024 0.158473 67.5141 0.209939 67.8916 0.27856C68.269 0.330025 68.6121 0.432955 68.938 0.518731C69.264 0.604507 69.5556 0.690282 69.8129 0.776058C70.0703 0.861834 70.2933 0.964766 70.4991 1.05054C70.6878 1.13632 70.8594 1.20494 70.9966 1.27356C71.2711 1.39364 71.4084 1.46226 71.4084 1.46226L71.3397 1.80537C71.3397 1.80537 71.1853 1.83968 70.8937 1.87399C70.6021 1.92545 70.2075 1.95976 69.6928 2.04554C69.4355 2.097 69.1439 2.13131 68.8522 2.18278C68.5434 2.23425 68.2175 2.26856 67.8744 2.35433C67.5313 2.42295 67.171 2.49157 66.7765 2.56019C66.3991 2.64597 66.0045 2.7489 65.5928 2.83468C64.7693 3.04054 63.8773 3.26356 62.968 3.52088C62.0416 3.79537 61.081 4.087 60.0688 4.3958C59.5541 4.53304 59.0566 4.70459 58.5248 4.85898C57.993 5.01338 57.4784 5.18493 56.9294 5.33933C56.3976 5.52804 55.8486 5.69959 55.3168 5.90545C54.785 6.11131 54.2532 6.33433 53.7214 6.5745L52.9323 6.93476L52.1603 7.31217C51.6456 7.55234 51.131 7.82683 50.6335 8.10131C50.1188 8.35864 49.6385 8.65027 49.141 8.92476C48.6606 9.19924 48.1631 9.47372 47.6999 9.76536C47.3397 9.98837 46.9794 10.1942 46.6363 10.4173C46.9966 10.3829 47.3397 10.3486 47.6999 10.3315C47.9573 10.3143 48.2146 10.2972 48.4548 10.28H49.2267C49.7414 10.2629 50.2389 10.2972 50.7536 10.3315C51.2682 10.3486 51.7657 10.4173 52.2632 10.4687C52.7779 10.5202 53.2582 10.6231 53.7729 10.7089C54.2704 10.7947 54.7679 10.9148 55.2482 11.0348L55.9859 11.2235L56.7064 11.4466C57.1867 11.601 57.6671 11.7382 58.1303 11.9269C58.5935 12.0985 59.0738 12.27 59.537 12.4759L60.9094 13.0935C61.3726 13.2993 61.8015 13.5395 62.2304 13.7625L62.8994 14.1056L63.5341 14.483L64.8036 15.2378L66.0216 16.0613L66.6392 16.473L67.2225 16.9019L68.3891 17.7768C68.7836 18.0685 69.1439 18.3944 69.5213 18.7032C69.8987 19.012 70.2761 19.3208 70.6364 19.6467L71.7172 20.6246C72.0603 20.9505 72.4548 21.2765 72.7808 21.6196L73.8101 22.6317C74.1532 22.9748 74.4963 23.3008 74.8222 23.661C75.4741 24.3644 76.1432 25.0678 76.7779 25.7883L78.6478 27.967L78.8537 28.2758C78.8537 28.2758 78.8537 28.2586 78.8537 28.2758L78.8709 28.3101L78.9223 28.3787L79.0424 28.5502C79.1282 28.6703 79.214 28.7733 79.3169 28.8934C79.5056 29.1335 79.7115 29.3565 79.9173 29.5967C80.329 30.0599 80.7751 30.5059 81.2383 30.9348C82.1646 31.7754 83.1596 32.5646 84.2233 33.2679C85.2869 33.9541 86.402 34.5546 87.5514 35.0692C88.7008 35.5839 89.8845 36.0127 91.1196 36.3387L91.5828 36.4759C91.7372 36.5102 91.8916 36.5446 92.046 36.5789L92.9724 36.7847C93.6071 36.8877 94.2247 37.0249 94.8594 37.0764C95.1854 37.1107 95.4942 37.1621 95.8201 37.1964L96.7808 37.2651L97.2612 37.2994L97.7415 37.3165L98.7194 37.3337C99.0453 37.3508 99.3713 37.3165 99.6972 37.3165L100.692 37.2822C101.344 37.2136 102.013 37.1793 102.682 37.1107C103.351 37.0077 104.003 36.9391 104.672 36.8362C105.341 36.7161 106.01 36.6132 106.662 36.4759C107.314 36.3215 107.983 36.1671 108.652 36.0127L110.642 35.4638L111.706 35.155L112.804 34.8462C113.541 34.6575 114.262 34.4688 115 34.2972C116.458 33.9541 117.933 33.6796 119.426 33.4395C120.901 33.1993 122.393 33.0449 123.903 32.9248C125.396 32.8047 126.888 32.7533 128.398 32.7704C129.135 32.7876 129.907 32.8047 130.628 32.839C131.383 32.8733 132.12 32.9248 132.858 32.9934C134.351 33.1307 135.843 33.3537 137.301 33.714C138.039 33.9027 138.777 34.1257 139.48 34.4173C140.218 34.6746 140.904 35.0521 141.487 35.601Z" fill="#F71708"/>
<path d="M73.9473 31.621L73.8272 31.4838L73.7415 31.3294L73.9473 31.621Z" fill="#F71708"/>
<path d="M154.113 66.1715C153.273 66.3259 152.415 66.4631 151.574 66.6004L149.035 66.9778C147.337 67.2008 145.639 67.4238 143.958 67.6297C143.117 67.7326 142.259 67.8184 141.419 67.9042C140.578 68.0071 139.72 68.0929 138.88 68.1615C137.181 68.3331 135.483 68.4874 133.802 68.6247C132.103 68.7619 130.405 68.8992 128.724 69.0021C127.025 69.1222 125.327 69.2251 123.646 69.328C120.249 69.5168 116.87 69.6883 113.473 69.7569C111.774 69.8084 110.076 69.8256 108.378 69.8256H108.138C108.498 71.421 109.064 72.9649 109.784 74.406C109.939 74.7148 110.128 75.0236 110.282 75.3324C110.471 75.6411 110.659 75.9328 110.831 76.2416C111.208 76.8249 111.62 77.4081 112.049 77.9571C112.924 79.0379 113.919 80.0329 114.965 80.9078C117.075 82.6576 119.494 83.9271 121.93 84.6819C122.548 84.8706 123.165 85.0422 123.766 85.1623C124.075 85.2137 124.384 85.2995 124.675 85.3338C124.967 85.3681 125.241 85.4196 125.55 85.4711C125.893 85.5054 126.219 85.5397 126.545 85.574H126.614H126.648H126.631H126.751L126.974 85.5911C127.128 85.5911 127.266 85.6083 127.42 85.6083C127.712 85.6254 128.02 85.6254 128.312 85.6254C128.604 85.6083 128.895 85.6426 129.187 85.6083C130.353 85.574 131.451 85.4024 132.498 85.2309C133.544 85.025 134.539 84.7505 135.449 84.4417C137.284 83.8242 138.828 83.0179 140.046 82.2802C141.281 81.5425 142.173 80.822 142.791 80.3417C143.357 79.8613 143.683 79.5868 143.717 79.5697C143.7 79.6211 143.46 79.9642 143.065 80.599C142.602 81.2509 141.916 82.2287 140.835 83.2923C139.772 84.3731 138.348 85.6083 136.478 86.6891C136.238 86.8263 135.998 86.9636 135.757 87.1008C135.517 87.238 135.26 87.3581 134.985 87.4782C134.471 87.7527 133.922 87.9585 133.356 88.1987C133.064 88.3188 132.772 88.4217 132.481 88.5075C132.189 88.6104 131.88 88.7134 131.572 88.7991C131.263 88.8849 130.937 88.9879 130.628 89.0565C130.302 89.1251 129.976 89.2109 129.633 89.2795C129.307 89.3653 128.964 89.3996 128.621 89.4511C128.278 89.5025 127.935 89.554 127.574 89.5883C127.403 89.6054 127.214 89.6226 127.043 89.6398L126.768 89.6569L126.631 89.6741H126.545H126.511H126.442C126.116 89.6912 125.773 89.7084 125.43 89.7255C125.053 89.7255 124.658 89.7255 124.263 89.7084C123.869 89.6912 123.491 89.6569 123.114 89.6398C122.342 89.5711 121.57 89.4682 120.781 89.331C117.642 88.7477 114.399 87.461 111.517 85.4024C110.059 84.3903 108.704 83.1723 107.486 81.817C106.251 80.4618 105.153 78.9349 104.261 77.288C103.368 75.6411 102.614 73.8742 102.116 72.0386C101.91 71.2837 101.722 70.4946 101.601 69.7226C100.469 69.7055 99.3198 69.6712 98.1876 69.6368L93.0925 69.5168C91.3941 69.4824 89.6958 69.431 87.9974 69.4138L82.9023 69.3452L72.7636 69.2251L73.0038 69.208L72.7122 69.2251H72.7465L70.2418 69.4653C69.7958 69.5168 69.3326 69.5339 68.8694 69.5511L67.4798 69.6197L66.7936 69.654H66.0903L64.6836 69.6368C64.2204 69.6368 63.74 69.6025 63.2768 69.5682L61.8701 69.4824L60.4462 69.3109C60.2061 69.2766 59.9659 69.2594 59.7429 69.2251L59.0224 69.0879C58.542 68.985 58.0788 68.9163 57.5985 68.7791L56.8951 68.5904C56.6549 68.5218 56.4148 68.4531 56.1918 68.3674L55.4884 68.11C55.3683 68.0586 55.2482 68.0243 55.1281 67.9728L54.785 67.8184L54.0817 67.4925L53.3955 67.0979C53.1724 66.9778 52.9494 66.8062 52.7264 66.6518C52.6235 66.5661 52.5034 66.4974 52.4005 66.4117L52.0745 66.1372C51.8515 65.9656 51.6456 65.7255 51.4398 65.5024C51.3368 65.3824 51.2339 65.2451 51.131 65.1079C51.0795 65.0564 51.0281 64.9535 50.9766 64.8677L50.908 64.7476C50.8908 64.7133 50.8393 64.6275 50.805 64.5589L50.8737 64.679C50.7193 64.3874 50.5649 64.0957 50.4276 63.8041C50.2904 63.4953 50.1531 63.2037 50.0331 62.8777C49.913 62.5518 49.81 62.243 49.7243 61.8999C49.6728 61.7283 49.6385 61.5739 49.6042 61.4024L49.5184 60.8877C49.4841 60.7162 49.4669 60.5446 49.4498 60.3559C49.4326 60.1844 49.3983 60.0128 49.4155 59.8241V59.2923C49.4155 59.1207 49.4326 58.932 49.4498 58.7605C49.4498 58.5889 49.4841 58.4002 49.5184 58.2287C49.5527 58.0571 49.5699 57.8684 49.6213 57.6969C49.69 57.3538 49.81 57.0106 49.9301 56.6675L50.136 56.1701C50.2046 56.0157 50.2904 55.8613 50.3762 55.6897C50.5477 55.3809 50.7193 55.0893 50.9251 54.7976C51.0109 54.6604 51.131 54.5232 51.2339 54.3859C51.3368 54.2487 51.4398 54.1286 51.5599 53.9913C51.6628 53.8541 51.7829 53.734 51.903 53.6139C52.0231 53.4938 52.126 53.3738 52.2461 53.2708C52.4862 53.0478 52.7264 52.8248 52.9837 52.6189C53.2411 52.4131 53.4984 52.2244 53.7729 52.0357C54.0474 51.8641 54.3047 51.6754 54.5963 51.521C54.7336 51.4352 54.888 51.3666 55.0252 51.2808C55.1796 51.1951 55.2997 51.1436 55.5056 51.0578L55.6599 50.9892L55.7629 50.972C56.2604 50.8863 56.7579 50.8176 57.2554 50.749C57.7529 50.6976 58.2504 50.6289 58.7479 50.6118C59.2454 50.5946 59.7429 50.5603 60.2575 50.5603H61.0124L61.7672 50.6118C62.2647 50.6289 62.7622 50.7147 63.2768 50.7662C63.5342 50.8005 63.7743 50.852 64.0145 50.9034C64.2718 50.9549 64.512 50.9892 64.7522 51.0578C64.9924 51.1264 65.2497 51.1779 65.4898 51.2465L66.2104 51.4695C66.4505 51.5382 66.6907 51.6411 66.9137 51.7269C67.1539 51.8126 67.3941 51.8984 67.6171 52.0185C68.0803 52.2072 68.5263 52.4474 68.9723 52.6704L69.6242 53.0478C69.8473 53.1679 70.0531 53.3223 70.259 53.4424C70.6707 53.7169 71.0824 54.0085 71.4598 54.3344C71.6657 54.4888 71.8373 54.6432 72.026 54.8148C72.2147 54.9692 72.3862 55.1407 72.5749 55.3123C72.9352 55.6554 73.2783 56.0157 73.6042 56.3931C73.9302 56.7533 74.239 57.1479 74.5306 57.5425C74.8223 57.937 75.0967 58.3488 75.3541 58.7605C75.6114 59.1894 75.8516 59.6011 76.0574 60.0643L75.4742 60.3388C75.2511 59.9442 74.9938 59.5496 74.7193 59.1722C74.4448 58.7948 74.1532 58.4345 73.8444 58.0743C73.5356 57.7312 73.2097 57.3881 72.8837 57.0621C72.5406 56.7362 72.1975 56.4274 71.8373 56.1357C71.6657 55.9813 71.477 55.8441 71.2883 55.7069C71.0996 55.5696 70.9109 55.4324 70.7222 55.3123C70.3448 55.055 69.9502 54.8148 69.5385 54.5918C69.3326 54.4888 69.1439 54.3688 68.938 54.2658L68.3205 53.9742C67.8916 53.8026 67.4798 53.6139 67.051 53.4767C66.8451 53.3909 66.6221 53.3394 66.3991 53.2708C66.1761 53.2022 65.9702 53.1336 65.7472 53.0821L65.0781 52.9277C64.8551 52.8763 64.6321 52.8419 64.4091 52.8076C64.1861 52.7733 63.963 52.739 63.74 52.7219C63.517 52.7047 63.294 52.6704 63.0538 52.6532C62.5906 52.6361 62.1446 52.5846 61.6814 52.6018H60.9952L60.309 52.6532C59.863 52.6704 59.3998 52.739 58.9537 52.7905C58.5077 52.842 58.0445 52.9449 57.5985 53.0135C57.2039 53.0993 56.8093 53.1851 56.4319 53.2708C56.4662 53.2537 56.5006 53.2365 56.5177 53.2194L56.2604 53.3051C56.3118 53.288 56.3633 53.288 56.4319 53.2708C56.3633 53.3051 56.2775 53.3566 56.2089 53.4081C56.106 53.4767 55.9859 53.5453 55.883 53.6139C55.6599 53.7512 55.4541 53.9227 55.2482 54.0771C55.0424 54.2487 54.8537 54.4031 54.6649 54.5746C54.4762 54.7462 54.2875 54.9349 54.1331 55.1064C54.0474 55.1922 53.9616 55.2951 53.893 55.3981C53.8072 55.501 53.7386 55.5868 53.6699 55.6897C53.6013 55.7926 53.5156 55.8784 53.4641 55.9813C53.3955 56.0843 53.3268 56.1872 53.2754 56.2901C53.1553 56.496 53.0524 56.7019 52.9494 56.9249C52.898 57.0278 52.8637 57.1307 52.8122 57.2508L52.7093 57.5768C52.6578 57.7998 52.5892 58.0228 52.572 58.2458C52.5549 58.3488 52.5377 58.4688 52.5377 58.5718C52.5206 58.6919 52.5206 58.7948 52.5206 58.9149V59.258L52.5549 59.6011C52.5549 59.7212 52.5892 59.8241 52.6063 59.9442C52.6235 60.0643 52.6406 60.1672 52.675 60.2873L52.7607 60.6304C52.795 60.7505 52.8465 60.8534 52.8808 60.9735C52.9494 61.1965 53.0524 61.4195 53.1553 61.6425C53.2411 61.8656 53.3783 62.0886 53.4812 62.3116L53.8758 62.9635L53.9444 63.1007C53.9444 63.0836 53.9101 63.0493 53.9101 63.0321L53.9273 63.0493C53.9444 63.0664 53.9444 63.0664 53.9616 63.0836C54.0131 63.135 54.0302 63.1694 54.0817 63.2208C54.1846 63.3066 54.2875 63.4095 54.4248 63.5125L54.6135 63.6497L54.8365 63.7869C54.9909 63.8727 55.111 63.9756 55.2825 64.0443L55.7629 64.2844L56.2947 64.4903C56.6378 64.6447 57.0324 64.7305 57.3926 64.8506C57.5813 64.9192 57.77 64.9535 57.9759 64.9878L58.5592 65.1079C58.9537 65.2108 59.3655 65.228 59.76 65.2966L60.3605 65.3824C60.5663 65.3995 60.7722 65.4167 60.978 65.4338L62.2304 65.5196H63.4999C63.9287 65.5196 64.3405 65.5368 64.7693 65.5024L66.0388 65.4338L66.6736 65.3995L67.3083 65.3309L68.5949 65.2108C69.0238 65.1765 69.4527 65.1422 69.8816 65.0564L72.4548 64.6962L72.5578 64.679H72.7465L82.9195 64.2844L88.0146 64.0786C89.7129 64.01 91.4113 63.907 93.1097 63.8384L98.1876 63.5811C99.2684 63.5296 100.349 63.461 101.413 63.4095C101.43 63.2208 101.447 63.0321 101.464 62.8434L101.55 62.14C101.601 61.6597 101.704 61.1965 101.79 60.7333C102.133 58.8634 102.751 57.045 103.54 55.3294C103.746 54.9006 103.935 54.4717 104.158 54.06L104.484 53.4424L104.844 52.8419C105.324 52.0528 105.856 51.298 106.422 50.5603C107.537 49.1021 108.807 47.7983 110.196 46.6832C112.924 44.4188 116.063 42.892 119.151 42.0685C120.695 41.6739 122.239 41.4166 123.714 41.3308C123.903 41.3137 124.075 41.3137 124.263 41.2965C124.452 41.2965 124.624 41.2965 124.812 41.2965C125.173 41.2965 125.533 41.2965 125.893 41.3137C126.065 41.3137 126.253 41.3308 126.425 41.3308L126.682 41.348H126.768H126.802H126.871L126.991 41.3652C127.317 41.3995 127.626 41.4338 127.935 41.4681C129.358 41.6568 130.594 41.9313 131.777 42.2915C132.944 42.6518 134.025 43.0978 135.003 43.5782C136.941 44.556 138.468 45.6539 139.6 46.6489C140.75 47.6439 141.504 48.5532 142.019 49.1707C142.276 49.4795 142.448 49.7369 142.568 49.9084C142.671 50.0628 142.74 50.1314 142.74 50.1486C142.705 50.1143 142.362 49.8741 141.762 49.4452C141.11 48.9992 140.149 48.3644 138.88 47.7126C137.61 47.0607 135.998 46.3916 134.128 45.8941C133.184 45.6711 132.189 45.4481 131.125 45.328C130.079 45.2079 128.93 45.1564 127.832 45.1907C127.523 45.2079 127.197 45.2251 126.888 45.2422H126.768H126.699H126.665C126.751 45.2422 126.699 45.2422 126.682 45.2422L126.459 45.2594C126.305 45.2765 126.168 45.2937 126.013 45.3108C125.722 45.328 125.413 45.3795 125.121 45.4309C124.967 45.4481 124.83 45.4824 124.675 45.4995C124.521 45.5339 124.383 45.5682 124.229 45.5853C123.028 45.8255 121.81 46.1686 120.627 46.6489C118.242 47.5925 115.943 49.0335 113.953 50.9377C112.975 51.8984 112.049 52.9277 111.26 54.0943C110.865 54.6775 110.488 55.2608 110.162 55.8956L109.905 56.3588L109.664 56.8391C109.51 57.1479 109.373 57.4738 109.236 57.7998C109.081 58.1257 108.978 58.4688 108.858 58.7948C108.738 59.1379 108.635 59.4638 108.532 59.8069C108.343 60.4931 108.172 61.1794 108.052 61.8827C108 62.243 107.915 62.5861 107.897 62.9463L107.88 63.135C108.035 63.135 108.189 63.135 108.361 63.1179C110.059 63.0664 111.757 63.0493 113.456 63.0493C116.852 63.0321 120.249 63.1179 123.646 63.2037C125.344 63.2551 127.043 63.3066 128.741 63.3924C130.439 63.461 132.138 63.5468 133.836 63.6325C135.534 63.7355 137.233 63.8212 138.931 63.9585C139.789 64.01 140.629 64.0786 141.47 64.1472C142.328 64.2158 143.168 64.2844 144.026 64.3531C145.725 64.4903 147.423 64.679 149.121 64.8506L151.677 65.1593C152.535 65.2794 153.376 65.3824 154.233 65.5196L154.113 66.1715Z" fill="#F71708"/>
<path d="M56.4663 53.288C56.4491 53.3051 56.4148 53.3223 56.3805 53.3394C56.329 53.3566 56.2775 53.3566 56.2089 53.3737L56.4663 53.288Z" fill="#F71708"/>
<path d="M73.0038 69.2423L72.7637 69.2594H72.7122L73.0038 69.2423Z" fill="#F71708"/>
</svg>
