<svg width="618" height="152" viewBox="0 0 618 152" fill="none" xmlns="http://www.w3.org/2000/svg">
<rect width="618" height="152" fill="#F2F2F2"/>
<path d="M241.977 131.76H235.57L222.211 84.3381L208.852 131.76H202.445L187.172 77.6194H181.391V73.4397H202.68V77.6194H195.414L207.562 120.705L220.844 73.4397H227.172L240.688 121.213L252.914 77.6194H246.195V73.4397H262.992V77.6194H257.25L241.977 131.76ZM267.68 131.76V127.619H275.102V77.6194H267.68V73.4397H314.633V86.4084H309.828V78.2444H283.031V97.7756H302.133V90.4709H306.938V109.846H302.133V102.541H283.031V126.955H310.453V118.791H315.258V131.76H267.68ZM362.445 131.76V127.619H369.906V78.0881H352.758V87.1897H347.953V73.4397H399.75V87.1897H394.945V78.0881H377.797V127.619H385.258V131.76H362.445ZM438.773 90.1584V100.549H434.633C434.503 98.4918 433.93 96.9553 432.914 95.9397C431.898 94.9241 430.414 94.4163 428.461 94.4163C424.919 94.4163 422.198 95.6402 420.297 98.0881C418.422 100.536 417.484 104.052 417.484 108.635V127.619H425.805V131.76H403.812V127.619H410.297V94.3381H403.422V90.2366H417.484V97.6194C418.891 94.7288 420.701 92.5933 422.914 91.2131C425.128 89.8069 427.823 89.1038 431 89.1038C432.172 89.1038 433.396 89.1949 434.672 89.3772C435.974 89.5595 437.341 89.8199 438.773 90.1584ZM470.648 118.713V109.924H461.391C457.823 109.924 455.167 110.692 453.422 112.229C451.677 113.765 450.805 116.122 450.805 119.299C450.805 122.19 451.69 124.481 453.461 126.174C455.232 127.867 457.628 128.713 460.648 128.713C463.643 128.713 466.052 127.789 467.875 125.94C469.724 124.091 470.648 121.682 470.648 118.713ZM477.836 105.823V127.619H484.242V131.76H470.648V127.268C469.06 129.195 467.224 130.614 465.141 131.526C463.057 132.437 460.622 132.893 457.836 132.893C453.227 132.893 449.568 131.669 446.859 129.221C444.151 126.773 442.797 123.466 442.797 119.299C442.797 115.002 444.346 111.669 447.445 109.299C450.544 106.929 454.919 105.744 460.57 105.744H470.648V102.893C470.648 99.7418 469.685 97.3069 467.758 95.5881C465.857 93.8433 463.174 92.9709 459.711 92.9709C456.846 92.9709 454.568 93.622 452.875 94.9241C451.182 96.2261 450.128 98.1532 449.711 100.705H446V92.3069C448.5 91.2392 450.922 90.4449 453.266 89.9241C455.635 89.3772 457.94 89.1038 460.18 89.1038C465.935 89.1038 470.31 90.536 473.305 93.4006C476.326 96.2392 477.836 100.38 477.836 105.823ZM506.312 131.76L491.039 94.4163H486.312V90.2366H505.414V94.4163H498.773L510.453 122.971L522.133 94.4163H515.922V90.2366H531.508V94.4163H526.859L511.586 131.76H506.312ZM575.141 111.76H544.164V112.073C544.164 117.671 545.219 121.903 547.328 124.768C549.438 127.606 552.549 129.026 556.664 129.026C559.815 129.026 562.393 128.205 564.398 126.565C566.43 124.898 567.849 122.437 568.656 119.182H574.438C573.292 123.739 571.169 127.164 568.07 129.455C564.997 131.747 560.948 132.893 555.922 132.893C549.854 132.893 544.971 130.901 541.273 126.916C537.602 122.906 535.766 117.593 535.766 110.979C535.766 104.416 537.576 99.1298 541.195 95.1194C544.815 91.109 549.568 89.1038 555.453 89.1038C561.729 89.1038 566.547 91.0439 569.906 94.9241C573.266 98.7782 575.01 104.39 575.141 111.76ZM566.664 107.619C566.508 102.776 565.479 99.1298 563.578 96.6819C561.703 94.2079 558.995 92.9709 555.453 92.9709C552.146 92.9709 549.542 94.2079 547.641 96.6819C545.74 99.1558 544.581 102.802 544.164 107.619H566.664ZM595.531 127.619H602.328V131.76H581.43V127.619H588.344V75.1194H581.43V70.9788H595.531V127.619Z" fill="#162945"/>
<path d="M160.487 61.0851L160.093 61.763C158.892 60.9495 157.468 60.8139 156.078 60.7461C154.672 60.7235 153.265 60.8139 151.858 60.9947C151.155 61.0851 150.451 61.1981 149.748 61.3111C149.028 61.4241 148.341 61.5596 147.638 61.7178C146.248 62.0116 144.859 62.3506 143.486 62.7574C142.114 63.1642 140.759 63.6388 139.403 64.1359C138.065 64.6557 136.727 65.1981 135.406 65.8083C134.754 66.1021 134.085 66.441 133.451 66.7574L132.49 67.2546L131.495 67.7744L129.351 68.8365C128.63 69.1529 127.892 69.4467 127.155 69.7405C126.417 70.0343 125.662 70.2603 124.907 70.5315C124.53 70.6671 124.153 70.7575 123.775 70.8479L122.626 71.1416C121.854 71.3224 121.082 71.458 120.293 71.5936C119.503 71.684 118.714 71.797 117.925 71.8422L116.724 71.8874L116.124 71.91L115.523 71.8874L114.323 71.8196C113.928 71.7744 113.516 71.7292 113.122 71.684C112.315 71.6162 111.526 71.3902 110.72 71.2546C110.325 71.1416 109.931 71.0287 109.536 70.9157C109.33 70.8479 109.142 70.8027 108.936 70.7349L108.353 70.5089C107.958 70.3507 107.564 70.2377 107.186 70.0569L106.02 69.5371C105.265 69.1303 104.493 68.7461 103.755 68.2716C102.28 67.345 100.856 66.2377 99.5349 64.9721C98.214 63.7066 96.9616 62.3054 95.8465 60.7461C95.2804 59.9777 94.7315 59.1642 94.2168 58.3054C93.9595 57.876 93.7021 57.4466 93.462 56.972C93.3419 56.746 93.2218 56.4975 93.1017 56.2715L92.913 55.8873L92.8272 55.6613L92.9302 55.8647L92.7243 55.4579L92.8272 55.6613L91.3347 53.0624C90.7858 52.1358 90.2197 51.2545 89.6535 50.3505C89.3791 49.8985 89.0703 49.4692 88.7786 49.0398L87.9037 47.7516C87.3033 46.8929 86.6685 46.1019 86.0681 45.2657C85.7593 44.859 85.4162 44.4974 85.1074 44.0906C84.7815 43.7064 84.4727 43.2996 84.1296 42.938L83.1174 41.8533L82.6199 41.3109L82.1053 40.8137L81.0588 39.7968L79.978 38.8702L79.4462 38.4182L78.8973 37.9888C78.5198 37.7176 78.1596 37.4239 77.7822 37.1527L76.6499 36.4069C76.2725 36.1583 75.8779 35.9549 75.4834 35.7515C75.106 35.5255 74.6942 35.3447 74.2997 35.164L73.6992 34.8928L73.0988 34.6668C72.6871 34.5086 72.2925 34.3504 71.8808 34.2374C71.4691 34.1244 71.0745 33.9888 70.6628 33.921C70.2511 33.8306 69.8393 33.7402 69.4276 33.695C69.0159 33.6498 68.6042 33.582 68.1924 33.5594L67.5748 33.5368L66.9573 33.5594C66.5455 33.5594 66.1338 33.6046 65.7221 33.6498C65.3104 33.695 64.8986 33.7854 64.4869 33.8306C64.0752 33.921 63.6635 34.0114 63.2689 34.1244C62.4626 34.3504 61.6735 34.6668 60.9015 35.051C60.5241 35.2318 60.1467 35.4577 59.7693 35.6837C59.7521 35.7063 59.7178 35.7063 59.7006 35.7289L59.735 36.4069V38.8476C59.7178 39.6612 59.6663 40.4521 59.632 41.2657C59.5977 42.0793 59.5119 42.8476 59.4433 43.6612C59.3918 44.4522 59.2718 45.2431 59.186 46.0115L59.0487 47.1867L58.8772 48.3392C58.6542 49.8985 58.3797 51.4127 58.1052 52.9494C57.7964 54.4635 57.5048 55.9777 57.1445 57.4692L56.8872 58.5992L56.6127 59.7065C56.424 60.4523 56.2525 61.1755 56.0638 61.9212L55.4805 64.1133C55.2746 64.8365 55.0688 65.5597 54.8629 66.2829C54.657 67.006 54.4512 67.7292 54.2281 68.4524C54.0051 69.1755 53.7993 69.8987 53.5762 70.5993L53.1302 72.023L53.1645 72.0456C53.4562 72.2264 53.7306 72.4298 54.0223 72.6106C55.2918 73.5146 56.3554 74.4185 57.3332 75.4129C58.3111 76.4072 59.1517 77.4468 59.8893 78.4863C61.3647 80.5881 62.394 82.6446 63.0974 84.4073C63.8179 86.17 64.2124 87.639 64.4526 88.6333C64.5727 89.1305 64.6413 89.5373 64.7099 89.7859C64.7614 90.0571 64.7957 90.1927 64.7957 90.1927C64.7957 90.1927 64.5555 89.7181 64.1267 88.8593C63.6635 88.0006 62.9944 86.7802 62.0337 85.3791C61.0731 83.9779 59.8207 82.4186 58.2425 80.927C57.4362 80.2039 56.5784 79.4807 55.6349 78.8253C54.6913 78.1926 53.6449 77.5824 52.6156 77.1304C52.3068 76.9948 52.0151 76.8818 51.7063 76.7462L51.6034 76.701C51.3461 77.492 51.0716 78.2604 50.7971 79.0513C50.3168 80.4525 49.8193 81.8536 49.3046 83.2321C48.79 84.6107 48.2925 86.0118 47.7607 87.3678C47.246 88.7463 46.7142 90.1023 46.1652 91.4808C45.6334 92.8367 45.0673 94.1927 44.5183 95.5486C43.4032 98.2379 42.2538 100.927 41.053 103.549L40.4869 103.142C41.5333 100.43 42.5455 97.6503 43.5062 94.8933C43.9865 93.5147 44.4669 92.1136 44.9301 90.7124C45.4104 89.3113 45.8736 87.9102 46.3196 86.509C46.7828 85.1079 47.2117 83.6841 47.6577 82.283C48.0866 80.8592 48.5155 79.4581 48.9272 78.0344C49.1159 77.379 49.3046 76.7236 49.4933 76.0682C49.3561 76.0456 49.2188 76.0004 49.0816 75.9778C47.8807 75.7293 46.6113 75.5711 45.3418 75.6163C42.7685 75.6615 40.1095 76.3846 37.5876 77.7858C36.3353 78.5089 35.1002 79.3677 33.9508 80.4299C33.3846 80.9722 32.8185 81.5146 32.2867 82.1248L31.8921 82.5768L31.5147 83.0514C31.2574 83.3677 31.0172 83.7067 30.7599 84.0457C30.5026 84.3621 30.2967 84.7463 30.0565 85.0853C29.8335 85.4469 29.6105 85.8084 29.3875 86.17C28.9758 86.9384 28.564 87.7068 28.2038 88.4977C28.0322 88.9045 27.8435 89.3113 27.672 89.7181L27.4146 90.3509L27.2088 90.9384C27.1402 91.1418 27.0715 91.3 27.0029 91.5486L26.7627 92.317L26.6427 92.7012L26.6255 92.7463V92.7689L26.5912 92.9271L26.4196 93.6051C25.4761 97.1758 25.2016 101.018 25.4761 104.724C25.5104 105.198 25.579 105.65 25.6134 106.102C25.682 106.554 25.7506 107.006 25.8021 107.458C25.9565 108.362 26.128 109.266 26.351 110.125C26.7799 111.888 27.3632 113.56 28.0322 115.119C29.3875 118.261 31.1888 120.95 33.2131 123.029C33.7106 123.549 34.2424 124.046 34.757 124.498C35.0144 124.701 35.2889 124.95 35.5462 125.131C35.8035 125.312 36.0437 125.515 36.3182 125.696C36.627 125.899 36.9186 126.103 37.2274 126.283L37.2789 126.329L37.3132 126.351C37.3132 126.351 37.296 126.351 37.2789 126.329L37.3818 126.396L37.5876 126.509C37.7249 126.6 37.8621 126.668 37.9994 126.758C38.2739 126.916 38.5483 127.052 38.8228 127.187C39.0973 127.323 39.3718 127.481 39.6463 127.571C40.7442 128.091 41.825 128.385 42.8886 128.656C43.9351 128.882 44.9644 129.018 45.9251 129.063C47.8636 129.176 49.5791 128.882 50.9858 128.543C52.4097 128.204 53.4905 127.73 54.2453 127.436C55.0001 127.097 55.3947 126.916 55.3947 126.916C55.3947 126.916 55.0516 127.255 54.4169 127.888C53.7478 128.475 52.77 129.357 51.3804 130.17C50.008 131.007 48.241 131.865 46.0966 132.317C45.8221 132.385 45.5476 132.43 45.2732 132.498C44.9987 132.566 44.707 132.566 44.4326 132.611C43.8493 132.701 43.266 132.701 42.6484 132.747C42.3396 132.747 42.0308 132.747 41.7049 132.724C41.3961 132.724 41.0701 132.701 40.7442 132.656C40.4182 132.611 40.0923 132.588 39.7663 132.543C39.4404 132.475 39.0973 132.43 38.7714 132.362C38.4282 132.317 38.1023 132.204 37.7592 132.114C37.4161 132.023 37.073 131.933 36.7299 131.798C36.5583 131.73 36.3868 131.685 36.2152 131.617L35.9579 131.526L35.8207 131.481C35.855 131.504 35.7349 131.436 35.7349 131.436L35.7006 131.413L35.632 131.391C35.3232 131.255 34.9972 131.12 34.6713 130.984C34.311 130.803 33.9508 130.622 33.5733 130.419C33.2131 130.216 32.87 130.012 32.5269 129.786C31.8407 129.334 31.1373 128.86 30.4511 128.317C27.7234 126.125 25.1502 123.029 23.1773 119.165C22.1823 117.244 21.3417 115.119 20.6727 112.86C20.0036 110.622 19.5061 108.227 19.2488 105.786C18.9915 103.323 18.9228 100.814 19.0944 98.3057C19.2659 95.7972 19.6777 93.3113 20.2781 90.9158L20.5183 90.0345L20.5869 89.8085L20.6384 89.6051L20.6727 89.5147L21.0329 88.3621C21.1187 88.0909 21.2388 87.7746 21.3417 87.4808C21.4446 87.187 21.5647 86.8706 21.6677 86.5768L22.0108 85.7406C22.2338 85.1757 22.4911 84.6559 22.7313 84.1135C23.7263 81.9666 24.9443 80.0231 26.2824 78.2829C26.6255 77.8536 26.9515 77.4242 27.3117 77.0174L27.8435 76.4072L28.3925 75.8423C29.1302 75.0739 29.9021 74.3959 30.6741 73.7631C32.2352 72.4976 33.8821 71.4806 35.5633 70.7575C38.9257 69.2659 42.3911 68.8139 45.5648 69.2433C47.1602 69.4693 48.6699 69.8761 50.0938 70.4637C50.2653 70.5315 50.454 70.5993 50.6256 70.6897C50.7285 70.7349 50.8314 70.7801 50.9344 70.8479L51.2946 69.4693C51.4833 68.7462 51.6549 68.023 51.8436 67.2998C52.0323 66.5766 52.2038 65.8535 52.3754 65.1303L52.8729 62.9608L53.3532 60.7687C53.5076 60.0455 53.6449 59.2997 53.7993 58.5766L54.0223 57.4918L54.2281 56.3845C54.5026 54.9155 54.7428 53.4466 54.9658 51.9777C55.1717 50.5087 55.3775 49.0398 55.5319 47.5708L55.652 46.4635L55.7378 45.3561C55.7893 44.6104 55.875 43.8872 55.8922 43.164C55.9094 42.4409 55.978 41.6951 55.978 40.9719C55.978 40.2487 55.9951 39.5256 55.978 38.8024L55.8922 36.6555L55.7035 34.5538L55.5491 32.9945L56.4926 32.1357L56.6985 31.9323L56.87 31.7741C56.9901 31.6611 57.1102 31.5707 57.2131 31.4803C57.4362 31.2995 57.6763 31.1413 57.8993 30.9605C58.3625 30.6441 58.8257 30.3278 59.2889 30.0792C60.1124 29.6046 60.9701 29.1978 61.8279 28.8588C62.2053 28.4068 62.5999 27.9549 63.0116 27.4803C63.2003 27.2543 63.4062 27.0283 63.612 26.8023C63.8179 26.5763 64.0237 26.3503 64.2296 26.1243C64.6413 25.6724 65.0874 25.2204 65.5334 24.7684C65.9794 24.3164 66.4426 23.8644 66.9058 23.3899C67.3861 22.9379 67.8665 22.4859 68.364 22.0565C68.8615 21.6271 69.359 21.1751 69.8736 20.7684L70.6456 20.1356L71.4348 19.5254C72.4812 18.7118 73.5792 17.9435 74.6428 17.1977C75.1917 16.8587 75.7407 16.4971 76.2897 16.1808C76.8386 15.887 77.3876 15.5706 77.9537 15.3446C79.0688 14.87 80.1839 14.5536 81.2647 14.3954C82.3454 14.2146 83.3747 14.1694 84.3183 14.192C84.7986 14.2146 85.2447 14.2598 85.6735 14.305C86.1024 14.3954 86.5141 14.4632 86.8916 14.5536C87.269 14.6214 87.6121 14.757 87.938 14.87C88.264 14.983 88.5556 15.096 88.8129 15.209C89.0703 15.322 89.2933 15.4576 89.4991 15.5706C89.6878 15.6836 89.8594 15.774 89.9966 15.8644C90.2711 16.0226 90.4084 16.113 90.4084 16.113L90.3397 16.5649C90.3397 16.5649 90.1853 16.6101 89.8937 16.6553C89.6021 16.7231 89.2075 16.7683 88.6928 16.8813C88.4355 16.9491 88.1439 16.9943 87.8522 17.0621C87.5434 17.1299 87.2175 17.1751 86.8744 17.2881C86.5313 17.3785 86.171 17.4689 85.7765 17.5593C85.3991 17.6723 85.0045 17.8079 84.5928 17.9209C83.7693 18.1921 82.8773 18.4859 81.968 18.8248C81.0416 19.1864 80.081 19.5706 79.0688 19.9774C78.5541 20.1582 78.0566 20.3842 77.5248 20.5876C76.993 20.791 76.4784 21.017 75.9294 21.2203C75.3976 21.4689 74.8486 21.6949 74.3168 21.9661C73.785 22.2373 73.2532 22.5311 72.7214 22.8475L71.9323 23.3221L71.1603 23.8192C70.6456 24.1356 70.131 24.4972 69.6335 24.8588C69.1188 25.1978 68.6385 25.582 68.141 25.9435C67.6606 26.3051 67.1631 26.6667 66.6999 27.0509C66.3397 27.3447 65.9794 27.6159 65.6363 27.9097C65.9966 27.8645 66.3397 27.8193 66.6999 27.7967C66.9573 27.7741 67.2146 27.7515 67.4548 27.7289H68.2267C68.7414 27.7063 69.2389 27.7515 69.7536 27.7967C70.2682 27.8193 70.7657 27.9097 71.2632 27.9775C71.7779 28.0453 72.2582 28.1808 72.7729 28.2938C73.2704 28.4068 73.7679 28.565 74.2482 28.7232L74.9859 28.9718L75.7064 29.2656C76.1867 29.469 76.6671 29.6498 77.1303 29.8984C77.5935 30.1244 78.0738 30.3504 78.537 30.6215L79.9094 31.4351C80.3726 31.7063 80.8015 32.0227 81.2304 32.3165L81.8994 32.7685L82.5341 33.2656L83.8036 34.26L85.0216 35.3448L85.6392 35.8871L86.2225 36.4521L87.3891 37.6047C87.7836 37.9888 88.1439 38.4182 88.5213 38.825C88.8987 39.2318 89.2761 39.6386 89.6364 40.068L90.7172 41.3561C91.0603 41.7855 91.4548 42.2149 91.7808 42.6668L92.8101 44.0002C93.1532 44.4522 93.4963 44.8815 93.8222 45.3561C94.4741 46.2827 95.1432 47.2092 95.7779 48.1584L97.6478 51.0285L97.8537 51.4353C97.8537 51.4353 97.8537 51.4127 97.8537 51.4353L97.8708 51.4805L97.9223 51.5709L98.0424 51.7969C98.1282 51.9551 98.214 52.0906 98.3169 52.2488C98.5056 52.5652 98.7115 52.859 98.9173 53.1754C99.329 53.7856 99.7751 54.3731 100.238 54.9381C101.165 56.0455 102.16 57.085 103.223 58.0116C104.287 58.9156 105.402 59.7065 106.551 60.3845C107.701 61.0625 108.884 61.6274 110.12 62.0568L110.583 62.2376C110.737 62.2828 110.892 62.328 111.046 62.3732L111.972 62.6444C112.607 62.78 113.225 62.9608 113.859 63.0286C114.185 63.0738 114.494 63.1416 114.82 63.1868L115.781 63.2772L116.261 63.3224L116.742 63.345L117.719 63.3676C118.045 63.3902 118.371 63.345 118.697 63.345L119.692 63.2998C120.344 63.2094 121.013 63.1642 121.682 63.0738C122.351 62.9382 123.003 62.8478 123.672 62.7122C124.341 62.554 125.01 62.4184 125.662 62.2376C126.314 62.0342 126.983 61.8308 127.652 61.6274L129.642 60.9043L130.706 60.4975L131.804 60.0907C132.541 59.8421 133.262 59.5935 134 59.3675C135.458 58.9156 136.933 58.554 138.426 58.2376C139.901 57.9212 141.393 57.7178 142.903 57.5596C144.396 57.4014 145.888 57.3336 147.398 57.3562C148.135 57.3788 148.907 57.4014 149.628 57.4466C150.383 57.4918 151.12 57.5596 151.858 57.65C153.351 57.8308 154.843 58.1246 156.301 58.5992C157.039 58.8478 157.777 59.1416 158.48 59.5257C159.218 59.8647 159.904 60.3619 160.487 61.0851Z" fill="#F71708"/>
<path d="M92.9473 55.8421L92.8272 55.6613L92.7415 55.4579L92.9473 55.8421Z" fill="#F71708"/>
<path d="M173.113 101.357C172.273 101.56 171.415 101.741 170.574 101.922L168.035 102.419C166.337 102.713 164.639 103.006 162.958 103.278C162.117 103.413 161.259 103.526 160.419 103.639C159.578 103.775 158.72 103.888 157.88 103.978C156.181 104.204 154.483 104.407 152.802 104.588C151.103 104.769 149.405 104.95 147.724 105.085C146.025 105.244 144.327 105.379 142.646 105.515C139.249 105.763 135.87 105.989 132.473 106.08C130.774 106.148 129.076 106.17 127.378 106.17H127.138C127.498 108.272 128.064 110.306 128.784 112.204C128.939 112.611 129.128 113.018 129.282 113.424C129.471 113.831 129.659 114.215 129.831 114.622C130.208 115.391 130.62 116.159 131.049 116.882C131.924 118.306 132.919 119.617 133.965 120.769C136.075 123.074 138.494 124.747 140.93 125.741C141.548 125.99 142.165 126.216 142.766 126.374C143.075 126.442 143.384 126.555 143.675 126.6C143.967 126.645 144.241 126.713 144.55 126.781C144.893 126.826 145.219 126.871 145.545 126.916H145.614H145.648H145.631H145.751L145.974 126.939C146.128 126.939 146.266 126.961 146.42 126.961C146.712 126.984 147.02 126.984 147.312 126.984C147.604 126.961 147.895 127.007 148.187 126.961C149.353 126.916 150.451 126.69 151.498 126.464C152.544 126.193 153.539 125.831 154.449 125.425C156.284 124.611 157.828 123.549 159.046 122.577C160.281 121.605 161.173 120.656 161.791 120.023C162.357 119.391 162.683 119.029 162.717 119.006C162.7 119.074 162.46 119.526 162.065 120.362C161.602 121.221 160.916 122.509 159.835 123.91C158.772 125.334 157.348 126.961 155.478 128.385C155.238 128.566 154.998 128.747 154.757 128.927C154.517 129.108 154.26 129.266 153.985 129.425C153.471 129.786 152.922 130.057 152.356 130.374C152.064 130.532 151.772 130.668 151.481 130.781C151.189 130.916 150.88 131.052 150.572 131.165C150.263 131.278 149.937 131.413 149.628 131.504C149.302 131.594 148.976 131.707 148.633 131.798C148.307 131.911 147.964 131.956 147.621 132.024C147.278 132.091 146.935 132.159 146.574 132.204C146.403 132.227 146.214 132.249 146.043 132.272L145.768 132.295L145.631 132.317H145.545H145.511H145.442C145.116 132.34 144.773 132.362 144.43 132.385C144.053 132.385 143.658 132.385 143.263 132.362C142.869 132.34 142.491 132.295 142.114 132.272C141.342 132.182 140.57 132.046 139.781 131.865C136.642 131.097 133.399 129.402 130.517 126.69C129.059 125.357 127.704 123.752 126.486 121.967C125.251 120.182 124.153 118.17 123.261 116.001C122.368 113.831 121.614 111.504 121.116 109.085C120.91 108.091 120.722 107.052 120.601 106.035C119.469 106.012 118.32 105.967 117.188 105.922L112.092 105.763C110.394 105.718 108.696 105.65 106.997 105.628L101.902 105.537L91.7636 105.379L92.0038 105.357L91.7122 105.379H91.7465L89.2418 105.696C88.7958 105.763 88.3326 105.786 87.8694 105.809L86.4798 105.899L85.7936 105.944H85.0903L83.6836 105.922C83.2204 105.922 82.74 105.876 82.2768 105.831L80.8701 105.718L79.4462 105.492C79.2061 105.447 78.9659 105.424 78.7429 105.379L78.0224 105.198C77.542 105.063 77.0788 104.972 76.5985 104.792L75.8951 104.543C75.6549 104.453 75.4148 104.362 75.1918 104.249L74.4884 103.91C74.3683 103.842 74.2482 103.797 74.1281 103.729L73.785 103.526L73.0817 103.097L72.3955 102.577C72.1724 102.419 71.9494 102.193 71.7264 101.989C71.6235 101.876 71.5034 101.786 71.4005 101.673L71.0745 101.311C70.8515 101.085 70.6456 100.769 70.4398 100.475C70.3368 100.317 70.2339 100.136 70.131 99.9554C70.0795 99.8876 70.0281 99.7521 69.9766 99.6391L69.908 99.4809C69.8908 99.4357 69.8393 99.3227 69.805 99.2323L69.8737 99.3905C69.7193 99.0063 69.5649 98.6221 69.4276 98.2379C69.2904 97.8311 69.1531 97.447 69.0331 97.0176C68.913 96.5882 68.81 96.1814 68.7243 95.7294C68.6728 95.5034 68.6385 95.3 68.6042 95.0741L68.5184 94.3961C68.4841 94.1701 68.4669 93.9441 68.4498 93.6955C68.4326 93.4695 68.3983 93.2435 68.4155 92.9949V92.2944C68.4155 92.0684 68.4326 91.8198 68.4498 91.5938C68.4498 91.3678 68.4841 91.1192 68.5184 90.8932C68.5527 90.6672 68.5699 90.4186 68.6213 90.1927C68.69 89.7407 68.81 89.2887 68.9301 88.8367L69.136 88.1813C69.2046 87.978 69.2904 87.7746 69.3762 87.5486C69.5477 87.1418 69.7193 86.7576 69.9251 86.3734C70.0109 86.1926 70.131 86.0118 70.2339 85.831C70.3368 85.6502 70.4398 85.4921 70.5599 85.3113C70.6628 85.1305 70.7829 84.9723 70.903 84.8141C71.0231 84.6559 71.126 84.4977 71.2461 84.3621C71.4862 84.0683 71.7264 83.7745 71.9837 83.5033C72.2411 83.2321 72.4984 82.9836 72.7729 82.735C73.0474 82.509 73.3047 82.2604 73.5963 82.057C73.7336 81.944 73.888 81.8536 74.0252 81.7406C74.1796 81.6276 74.2997 81.5598 74.5056 81.4468L74.6599 81.3564L74.7629 81.3338C75.2604 81.2208 75.7579 81.1304 76.2554 81.04C76.7529 80.9722 77.2504 80.8818 77.7479 80.8592C78.2454 80.8366 78.7429 80.7915 79.2575 80.7915H80.0124L80.7672 80.8592C81.2647 80.8818 81.7622 80.9948 82.2768 81.0626C82.5342 81.1078 82.7743 81.1756 83.0145 81.2434C83.2718 81.3112 83.512 81.3564 83.7522 81.4468C83.9924 81.5372 84.2497 81.605 84.4898 81.6954L85.2104 81.9892C85.4505 82.0796 85.6907 82.2152 85.9137 82.3282C86.1539 82.4412 86.3941 82.5542 86.6171 82.7124C87.0803 82.961 87.5263 83.2773 87.9723 83.5711L88.6242 84.0683C88.8473 84.2265 89.0531 84.4299 89.259 84.5881C89.6707 84.9497 90.0824 85.3339 90.4598 85.7632C90.6657 85.9666 90.8373 86.17 91.026 86.396C91.2147 86.5994 91.3862 86.8254 91.5749 87.0514C91.9352 87.5034 92.2783 87.978 92.6042 88.4751C92.9302 88.9497 93.239 89.4695 93.5306 89.9893C93.8223 90.509 94.0967 91.0514 94.3541 91.5938C94.6114 92.1588 94.8516 92.7011 95.0574 93.3113L94.4742 93.6729C94.2511 93.1531 93.9938 92.6334 93.7193 92.1362C93.4448 91.639 93.1532 91.1644 92.8444 90.6898C92.5356 90.2379 92.2097 89.7859 91.8837 89.3565C91.5406 88.9271 91.1975 88.5203 90.8373 88.1361C90.6657 87.9328 90.477 87.752 90.2883 87.5712C90.0996 87.3904 89.9109 87.2096 89.7222 87.0514C89.3448 86.7124 88.9502 86.396 88.5385 86.1022C88.3326 85.9666 88.1439 85.8084 87.938 85.6728L87.3204 85.2887C86.8916 85.0627 86.4798 84.8141 86.051 84.6333C85.8451 84.5203 85.6221 84.4525 85.3991 84.3621C85.1761 84.2717 84.9702 84.1813 84.7472 84.1135L84.0781 83.9101C83.8551 83.8423 83.6321 83.7971 83.4091 83.7519C83.1861 83.7067 82.963 83.6615 82.74 83.6389C82.517 83.6163 82.294 83.5711 82.0538 83.5485C81.5906 83.5259 81.1446 83.4581 80.6814 83.4807H79.9952L79.309 83.5485C78.863 83.5711 78.3998 83.6615 77.9537 83.7293C77.5077 83.7971 77.0445 83.9327 76.5985 84.0231C76.2039 84.1361 75.8093 84.2491 75.4319 84.3621C75.4662 84.3395 75.5006 84.3169 75.5177 84.2943L75.2604 84.4073C75.3118 84.3847 75.3633 84.3847 75.4319 84.3621C75.3633 84.4073 75.2775 84.4751 75.2089 84.5429C75.106 84.6333 74.9859 84.7237 74.883 84.8141C74.6599 84.9949 74.4541 85.2209 74.2482 85.4243C74.0424 85.6502 73.8537 85.8536 73.6649 86.0796C73.4762 86.3056 73.2875 86.5542 73.1331 86.7802C73.0474 86.8932 72.9616 87.0288 72.893 87.1644C72.8072 87.3 72.7386 87.413 72.6699 87.5486C72.6013 87.6842 72.5156 87.7972 72.4641 87.9327C72.3955 88.0683 72.3268 88.2039 72.2754 88.3395C72.1553 88.6107 72.0524 88.8819 71.9494 89.1757C71.898 89.3113 71.8637 89.4469 71.8122 89.6051L71.7093 90.0345C71.6578 90.3282 71.5892 90.622 71.572 90.9158C71.5549 91.0514 71.5377 91.2096 71.5377 91.3452C71.5206 91.5034 71.5206 91.639 71.5206 91.7972V92.2492L71.5549 92.7012C71.5549 92.8593 71.5892 92.9949 71.6063 93.1531C71.6235 93.3113 71.6406 93.4469 71.675 93.6051L71.7607 94.0571C71.795 94.2153 71.8465 94.3509 71.8808 94.5091C71.9494 94.8029 72.0524 95.0966 72.1553 95.3904C72.2411 95.6842 72.3783 95.978 72.4812 96.2718L72.8758 97.1306L72.9444 97.3114C72.9444 97.2888 72.9101 97.2436 72.9101 97.221L72.9273 97.2436C72.9444 97.2662 72.9444 97.2662 72.9616 97.2888C73.0131 97.3566 73.0302 97.4018 73.0817 97.4696C73.1846 97.5825 73.2875 97.7181 73.4248 97.8537L73.6135 98.0345L73.8365 98.2153C73.9909 98.3283 74.111 98.4639 74.2825 98.5543L74.7629 98.8707L75.2947 99.1419C75.6378 99.3453 76.0324 99.4583 76.3926 99.6165C76.5813 99.7069 76.77 99.7521 76.9759 99.7973L77.5592 99.9554C77.9537 100.091 78.3655 100.114 78.76 100.204L79.3605 100.317C79.5663 100.34 79.7722 100.362 79.978 100.385L81.2304 100.498H82.4999C82.9287 100.498 83.3405 100.52 83.7693 100.475L85.0388 100.385L85.6736 100.34L86.3083 100.249L87.5949 100.091C88.0238 100.046 88.4527 100.001 88.8816 99.8877L91.4548 99.4131L91.5578 99.3905H91.7465L101.919 98.8707L107.015 98.5995C108.713 98.5091 110.411 98.3735 112.11 98.2831L117.188 97.9441C118.268 97.8763 119.349 97.7859 120.413 97.7181C120.43 97.4695 120.447 97.221 120.464 96.9724L120.55 96.0458C120.601 95.413 120.704 94.8029 120.79 94.1927C121.133 91.7294 121.751 89.3339 122.54 87.074C122.746 86.509 122.935 85.944 123.158 85.4016L123.484 84.5881L123.844 83.7971C124.324 82.7576 124.856 81.7632 125.422 80.7915C126.537 78.8705 127.807 77.153 129.196 75.6841C131.924 72.701 135.063 70.6897 138.151 69.6049C139.695 69.0851 141.239 68.7462 142.714 68.6332C142.903 68.6106 143.075 68.6106 143.263 68.588C143.452 68.588 143.624 68.588 143.812 68.588C144.173 68.588 144.533 68.588 144.893 68.6106C145.065 68.6106 145.253 68.6332 145.425 68.6332L145.682 68.6558H145.768H145.802H145.871L145.991 68.6784C146.317 68.7236 146.626 68.7688 146.935 68.814C148.358 69.0625 149.594 69.4241 150.777 69.8987C151.944 70.3733 153.025 70.9609 154.003 71.5936C155.941 72.8818 157.468 74.3281 158.6 75.6389C159.75 76.9496 160.504 78.1474 161.019 78.9609C161.276 79.3677 161.448 79.7067 161.568 79.9327C161.671 80.1361 161.74 80.2265 161.74 80.2491C161.705 80.2039 161.362 79.8875 160.762 79.3225C160.11 78.7349 159.149 77.8988 157.88 77.04C156.61 76.1812 154.998 75.2999 153.128 74.6445C152.184 74.3507 151.189 74.0569 150.125 73.8987C149.079 73.7405 147.93 73.6727 146.832 73.7179C146.523 73.7405 146.197 73.7631 145.888 73.7857H145.768H145.699H145.665C145.751 73.7857 145.699 73.7857 145.682 73.7857L145.459 73.8083C145.305 73.8309 145.168 73.8535 145.013 73.8761C144.722 73.8987 144.413 73.9665 144.121 74.0343C143.967 74.0569 143.83 74.1021 143.675 74.1247C143.521 74.1699 143.383 74.2151 143.229 74.2377C142.028 74.5541 140.81 75.0061 139.627 75.6389C137.242 76.8818 134.943 78.7801 132.953 81.2886C131.975 82.5542 131.049 83.9101 130.26 85.4468C129.865 86.2152 129.488 86.9836 129.162 87.8198L128.905 88.4299L128.664 89.0627C128.51 89.4695 128.373 89.8989 128.236 90.3283C128.081 90.7576 127.978 91.2096 127.858 91.639C127.738 92.091 127.635 92.5204 127.532 92.9723C127.343 93.8763 127.172 94.7803 127.052 95.7068C127 96.1814 126.915 96.6334 126.897 97.108L126.88 97.3566C127.035 97.3566 127.189 97.3566 127.361 97.334C129.059 97.2662 130.757 97.2436 132.456 97.2436C135.852 97.221 139.249 97.334 142.646 97.447C144.344 97.5148 146.043 97.5825 147.741 97.6955C149.439 97.7859 151.138 97.8989 152.836 98.0119C154.534 98.1475 156.233 98.2605 157.931 98.4413C158.789 98.5091 159.629 98.5995 160.47 98.6899C161.328 98.7803 162.168 98.8707 163.026 98.9611C164.725 99.1419 166.423 99.3905 168.121 99.6165L170.677 100.023C171.535 100.181 172.376 100.317 173.233 100.498L173.113 101.357Z" fill="#F71708"/>
<path d="M75.4663 84.3847C75.4491 84.4073 75.4148 84.4299 75.3805 84.4525C75.329 84.4751 75.2775 84.4751 75.2089 84.4977L75.4663 84.3847Z" fill="#F71708"/>
<path d="M92.0038 105.402L91.7637 105.424H91.7122L92.0038 105.402Z" fill="#F71708"/>
</svg>
