<svg width="618" height="152" viewBox="0 0 618 152" fill="none" xmlns="http://www.w3.org/2000/svg">
<rect width="618" height="152" fill="#162945"/>
<path d="M245.16 133H238.754L225.395 85.5781L212.035 133H205.629L190.356 78.8594H184.574V74.6797H205.864V78.8594H198.598L210.746 121.945L224.028 74.6797H230.356L243.871 122.453L256.098 78.8594H249.379V74.6797H266.176V78.8594H260.434L245.16 133ZM270.864 133V128.859H278.285V78.8594H270.864V74.6797H317.817V87.6484H313.012V79.4844H286.215V99.0156H305.317V91.7109H310.121V111.086H305.317V103.781H286.215V128.195H313.637V120.031H318.442V133H270.864ZM365.629 133V128.859H373.09V79.3281H355.942V88.4297H351.137V74.6797H402.934V88.4297H398.129V79.3281H380.981V128.859H388.442V133H365.629ZM441.957 91.3984V101.789H437.817C437.686 99.7318 437.114 98.1953 436.098 97.1797C435.082 96.1641 433.598 95.6562 431.645 95.6562C428.103 95.6562 425.382 96.8802 423.481 99.3281C421.606 101.776 420.668 105.292 420.668 109.875V128.859H428.989V133H406.996V128.859H413.481V95.5781H406.606V91.4766H420.668V98.8594C422.074 95.9688 423.884 93.8333 426.098 92.4531C428.311 91.0469 431.007 90.3438 434.184 90.3438C435.356 90.3438 436.58 90.4349 437.856 90.6172C439.158 90.7995 440.525 91.0599 441.957 91.3984ZM473.832 119.953V111.164H464.574C461.007 111.164 458.351 111.932 456.606 113.469C454.861 115.005 453.989 117.362 453.989 120.539C453.989 123.43 454.874 125.721 456.645 127.414C458.416 129.107 460.811 129.953 463.832 129.953C466.827 129.953 469.236 129.029 471.059 127.18C472.908 125.331 473.832 122.922 473.832 119.953ZM481.02 107.062V128.859H487.426V133H473.832V128.508C472.244 130.435 470.408 131.854 468.324 132.766C466.241 133.677 463.806 134.133 461.02 134.133C456.41 134.133 452.752 132.909 450.043 130.461C447.335 128.013 445.981 124.706 445.981 120.539C445.981 116.242 447.53 112.909 450.629 110.539C453.728 108.169 458.103 106.984 463.754 106.984H473.832V104.133C473.832 100.982 472.869 98.5469 470.942 96.8281C469.041 95.0833 466.358 94.2109 462.895 94.2109C460.03 94.2109 457.752 94.862 456.059 96.1641C454.366 97.4661 453.311 99.3932 452.895 101.945H449.184V93.5469C451.684 92.4792 454.106 91.6849 456.449 91.1641C458.819 90.6172 461.124 90.3438 463.364 90.3438C469.119 90.3438 473.494 91.776 476.489 94.6406C479.509 97.4792 481.02 101.62 481.02 107.062ZM509.496 133L494.223 95.6562H489.496V91.4766H508.598V95.6562H501.957L513.637 124.211L525.317 95.6562H519.106V91.4766H534.692V95.6562H530.043L514.77 133H509.496ZM578.324 113H547.348V113.312C547.348 118.911 548.403 123.143 550.512 126.008C552.621 128.846 555.733 130.266 559.848 130.266C562.999 130.266 565.577 129.445 567.582 127.805C569.614 126.138 571.033 123.677 571.84 120.422H577.621C576.476 124.979 574.353 128.404 571.254 130.695C568.181 132.987 564.132 134.133 559.106 134.133C553.038 134.133 548.155 132.141 544.457 128.156C540.785 124.146 538.949 118.833 538.949 112.219C538.949 105.656 540.759 100.37 544.379 96.3594C547.999 92.349 552.752 90.3438 558.637 90.3438C564.913 90.3438 569.731 92.2839 573.09 96.1641C576.449 100.018 578.194 105.63 578.324 113ZM569.848 108.859C569.692 104.016 568.663 100.37 566.762 97.9219C564.887 95.4479 562.179 94.2109 558.637 94.2109C555.33 94.2109 552.726 95.4479 550.824 97.9219C548.923 100.396 547.765 104.042 547.348 108.859H569.848ZM598.715 128.859H605.512V133H584.614V128.859H591.528V76.3594H584.614V72.2188H598.715V128.859Z" fill="#E0E0E0"/>
<path d="M163.196 62.2813L162.792 62.9504C161.564 62.1475 160.107 62.0137 158.685 61.9468C157.246 61.9245 155.807 62.0137 154.367 62.1921C153.648 62.2813 152.928 62.3928 152.208 62.5043C151.471 62.6158 150.769 62.7497 150.049 62.9058C148.628 63.1957 147.206 63.5302 145.802 63.9316C144.398 64.3331 143.011 64.8014 141.624 65.2921C140.255 65.805 138.886 66.3402 137.535 66.9424C136.868 67.2323 136.183 67.5668 135.534 67.8791L134.551 68.3697L133.533 68.8826L131.339 69.9308C130.601 70.243 129.847 70.533 129.092 70.8229C128.337 71.1128 127.565 71.3358 126.793 71.6034C126.406 71.7372 126.02 71.8265 125.634 71.9157L124.458 72.2056C123.668 72.384 122.878 72.5178 122.071 72.6516C121.264 72.7408 120.456 72.8523 119.649 72.8969L118.42 72.9415L117.806 72.9638L117.191 72.9415L115.963 72.8746C115.559 72.83 115.138 72.7854 114.734 72.7408C113.909 72.6739 113.102 72.4509 112.277 72.3171C111.873 72.2056 111.469 72.0941 111.066 71.9826C110.855 71.9157 110.662 71.8711 110.451 71.8042L109.855 71.5811C109.451 71.425 109.047 71.3135 108.661 71.1351L107.467 70.6222C106.695 70.2207 105.905 69.8416 105.151 69.3733C103.641 68.4589 102.184 67.3661 100.833 66.1172C99.4811 64.8683 98.1998 63.4856 97.0589 61.9468C96.4797 61.1885 95.918 60.3857 95.3915 59.5382C95.1282 59.1145 94.8649 58.6907 94.6192 58.2224C94.4963 57.9994 94.3734 57.7541 94.2506 57.5311L94.0575 57.1519L93.9697 56.9289L94.075 57.1296L93.8644 56.7282L93.9697 56.9289L92.4427 54.3642C91.881 53.4499 91.3018 52.5801 90.7225 51.688C90.4417 51.242 90.1258 50.8183 89.8274 50.3945L88.9322 49.1233C88.3179 48.2759 87.6684 47.4953 87.0541 46.6701C86.7382 46.2687 86.3871 45.9119 86.0712 45.5104C85.7377 45.1313 85.4217 44.7299 85.0707 44.3731L84.0351 43.3026L83.5261 42.7673L82.9995 42.2767L81.9288 41.2731L80.823 40.3588L80.2789 39.9127L79.7172 39.489C79.3311 39.2214 78.9625 38.9314 78.5763 38.6638L77.4179 37.9279C77.0317 37.6825 76.628 37.4818 76.2243 37.2811C75.8382 37.0581 75.4169 36.8797 75.0132 36.7013L74.3989 36.4337L73.7846 36.2106C73.3633 36.0545 72.9596 35.8984 72.5383 35.7869C72.1171 35.6754 71.7134 35.5416 71.2921 35.4747C70.8709 35.3855 70.4496 35.2963 70.0284 35.2517C69.6071 35.2071 69.1859 35.1402 68.7646 35.1179L68.1327 35.0956L67.5008 35.1179C67.0796 35.1179 66.6583 35.1625 66.2371 35.2071C65.8158 35.2517 65.3946 35.3409 64.9733 35.3855C64.552 35.4747 64.1308 35.5639 63.7271 35.6754C62.9021 35.8984 62.0947 36.2106 61.3049 36.5898C60.9187 36.7682 60.5326 36.9912 60.1464 37.2142C60.1289 37.2365 60.0938 37.2365 60.0762 37.2588L60.1113 37.9279V40.3365C60.0938 41.1393 60.0411 41.9199 60.006 42.7227C59.9709 43.5256 59.8831 44.2839 59.8129 45.0867C59.7603 45.8673 59.6374 46.6478 59.5496 47.4061L59.4092 48.5658L59.2337 49.7032C59.0055 51.242 58.7247 52.7362 58.4438 54.2527C58.1279 55.7469 57.8295 57.2411 57.4609 58.7131L57.1976 59.8281L56.9168 60.9209C56.7237 61.6569 56.5482 62.3705 56.3551 63.1065L55.7583 65.2698C55.5477 65.9834 55.3371 66.6971 55.1265 67.4107C54.9158 68.1244 54.7052 68.838 54.477 69.5517C54.2488 70.2653 54.0382 70.979 53.81 71.6703L53.3537 73.0753L53.3888 73.0977C53.6872 73.2761 53.968 73.4768 54.2664 73.6552C55.5653 74.5473 56.6535 75.4393 57.654 76.4206C58.6545 77.4019 59.5145 78.4278 60.2693 79.4536C61.7788 81.5277 62.8319 83.5572 63.5516 85.2967C64.2888 87.0362 64.6925 88.4858 64.9382 89.4671C65.0611 89.9577 65.1313 90.3592 65.2015 90.6045C65.2541 90.8721 65.2892 91.0059 65.2892 91.0059C65.2892 91.0059 65.0435 90.5376 64.6047 89.6901C64.1308 88.8427 63.4462 87.6384 62.4633 86.2557C61.4804 84.8729 60.1991 83.3341 58.5843 81.8622C57.7593 81.1486 56.8817 80.4349 55.9163 79.7882C54.9509 79.1637 53.8802 78.5616 52.8271 78.1155C52.5112 77.9817 52.2128 77.8702 51.8968 77.7364L51.7915 77.6918C51.5282 78.4724 51.2474 79.2306 50.9665 80.0112C50.4751 81.3939 49.9661 82.7766 49.4395 84.137C48.9129 85.4974 48.4039 86.8801 47.8598 88.2182C47.3332 89.5786 46.7891 90.9167 46.2274 92.2771C45.6833 93.6152 45.1041 94.9533 44.5424 96.2914C43.4015 98.9453 42.2255 101.599 40.9968 104.186L40.4176 103.785C41.4883 101.109 42.5239 98.3655 43.5068 95.6447C43.9983 94.2843 44.4897 92.9016 44.9637 91.5189C45.4551 90.1361 45.929 88.7534 46.3854 87.3707C46.8593 85.988 47.2981 84.583 47.7545 83.2003C48.1933 81.7953 48.6321 80.4126 49.0533 79.0076C49.2464 78.3609 49.4395 77.7141 49.6326 77.0674C49.4922 77.0451 49.3517 77.0004 49.2113 76.9781C47.9827 76.7328 46.6838 76.5767 45.3849 76.6213C42.7521 76.6659 40.0315 77.3796 37.4513 78.7623C36.1699 79.4759 34.9062 80.3234 33.7302 81.3716C33.1509 81.9068 32.5717 82.4421 32.0276 83.0442L31.6239 83.4902L31.2377 83.9586C30.9745 84.2708 30.7287 84.6053 30.4654 84.9398C30.2022 85.2521 29.9915 85.6312 29.7458 85.9657C29.5176 86.3226 29.2894 86.6794 29.0613 87.0362C28.64 87.7945 28.2187 88.5527 27.8501 89.3333C27.6746 89.7347 27.4815 90.1362 27.306 90.5376L27.0427 91.162L26.8321 91.7419C26.7619 91.9426 26.6917 92.0987 26.6215 92.344L26.3758 93.1023L26.2529 93.4814L26.2353 93.526V93.5483L26.2002 93.7044L26.0247 94.3735C25.0593 97.8971 24.7785 101.688 25.0593 105.346C25.0944 105.814 25.1646 106.26 25.1997 106.706C25.27 107.152 25.3402 107.598 25.3928 108.044C25.5508 108.936 25.7263 109.829 25.9545 110.676C26.3933 112.416 26.9901 114.066 27.6746 115.605C29.0613 118.705 30.9043 121.359 32.9754 123.41C33.4844 123.923 34.0286 124.414 34.5551 124.86C34.8184 125.061 35.0993 125.306 35.3625 125.484C35.6258 125.663 35.8716 125.863 36.1524 126.042C36.4683 126.243 36.7667 126.443 37.0827 126.622L37.1353 126.666L37.1704 126.689C37.1704 126.689 37.1529 126.689 37.1353 126.666L37.2406 126.733L37.4513 126.845C37.5917 126.934 37.7321 127.001 37.8725 127.09C38.1534 127.246 38.4342 127.38 38.715 127.514C38.9959 127.648 39.2767 127.804 39.5575 127.893C40.6809 128.406 41.7867 128.696 42.8749 128.963C43.9456 129.186 44.9988 129.32 45.9817 129.365C47.9651 129.476 49.7203 129.186 51.1596 128.852C52.6165 128.517 53.7223 128.049 54.4946 127.759C55.2669 127.425 55.6706 127.246 55.6706 127.246C55.6706 127.246 55.3195 127.581 54.6701 128.205C53.9855 128.785 52.9851 129.655 51.5633 130.458C50.1591 131.283 48.3513 132.13 46.1572 132.576C45.8764 132.643 45.5955 132.688 45.3147 132.755C45.0339 132.822 44.7355 132.822 44.4546 132.866C43.8579 132.955 43.2611 132.955 42.6292 133C42.3133 133 41.9973 133 41.6638 132.978C41.3479 132.978 41.0144 132.955 40.6809 132.911C40.3474 132.866 40.0139 132.844 39.6804 132.799C39.3469 132.732 38.9959 132.688 38.6624 132.621C38.3113 132.576 37.9778 132.465 37.6268 132.376C37.2757 132.286 36.9247 132.197 36.5736 132.063C36.3981 131.996 36.2226 131.952 36.0471 131.885L35.7838 131.796L35.6434 131.751C35.6785 131.773 35.5556 131.707 35.5556 131.707L35.5205 131.684L35.4503 131.662C35.1344 131.528 34.8009 131.394 34.4674 131.26C34.0988 131.082 33.7302 130.904 33.344 130.703C32.9754 130.502 32.6244 130.302 32.2733 130.078C31.5712 129.632 30.8516 129.164 30.1495 128.629C27.3587 126.466 24.7258 123.41 22.7073 119.597C21.6893 117.701 20.8292 115.605 20.1447 113.375C19.4601 111.167 18.9511 108.803 18.6878 106.394C18.4246 103.963 18.3543 101.488 18.5299 99.0122C18.7054 96.5367 19.1266 94.0835 19.741 91.7196L19.9867 90.8498L20.0569 90.6268L20.1096 90.4261L20.1447 90.3369L20.5133 89.1995C20.601 88.9319 20.7239 88.6196 20.8292 88.3297C20.9345 88.0398 21.0574 87.7276 21.1627 87.4376L21.5138 86.6125C21.7419 86.0549 22.0052 85.542 22.251 85.0068C23.269 82.8881 24.5152 80.9701 25.8843 79.2529C26.2353 78.8292 26.5688 78.4055 26.9374 78.004L27.4815 77.4019L28.0432 76.8443C28.798 76.0861 29.5878 75.417 30.3777 74.7926C31.9749 73.5437 33.66 72.5401 35.3801 71.8265C38.8203 70.3545 42.3659 69.9085 45.6131 70.3322C47.2455 70.5553 48.7901 70.9567 50.2469 71.5365C50.4224 71.6034 50.6155 71.6703 50.791 71.7595C50.8963 71.8041 51.0017 71.8488 51.107 71.9157L51.4756 70.5553C51.6686 69.8416 51.8442 69.1279 52.0372 68.4143C52.2303 67.7006 52.4058 66.987 52.5814 66.2733L53.0904 64.1324L53.5818 61.9691C53.7398 61.2554 53.8802 60.5195 54.0382 59.8058L54.2664 58.7354L54.477 57.6426C54.7579 56.193 55.0036 54.7434 55.2318 53.2937C55.4424 51.8441 55.653 50.3945 55.811 48.9449L55.9339 47.8521L56.0216 46.7593C56.0743 46.0234 56.162 45.3097 56.1796 44.5961C56.1971 43.8824 56.2674 43.1465 56.2674 42.4328C56.2674 41.7192 56.2849 41.0055 56.2674 40.2918L56.1796 38.1732L55.9865 36.0991L55.8285 34.5603L56.7939 33.7128L57.0045 33.5121L57.1801 33.356C57.3029 33.2445 57.4258 33.1553 57.5311 33.0661C57.7593 32.8877 58.005 32.7316 58.2332 32.5532C58.7071 32.2409 59.181 31.9287 59.6549 31.6834C60.4975 31.2151 61.3751 30.8136 62.2527 30.4791C62.6388 30.0331 63.0425 29.587 63.4638 29.1187C63.6569 28.8957 63.8675 28.6727 64.0781 28.4496C64.2888 28.2266 64.4994 28.0036 64.71 27.7806C65.1313 27.3346 65.5876 26.8885 66.044 26.4425C66.5003 25.9965 66.9743 25.5504 67.4482 25.0821C67.9396 24.6361 68.4311 24.19 68.9401 23.7663C69.4491 23.3426 69.9582 22.8965 70.4847 22.4951L71.2746 21.8706L72.082 21.2685C73.1527 20.4656 74.276 19.7074 75.3643 18.9714C75.9259 18.6369 76.4876 18.2801 77.0493 17.9678C77.611 17.6779 78.1726 17.3657 78.7519 17.1427C79.8928 16.6744 81.0337 16.3621 82.1395 16.206C83.2453 16.0276 84.2984 15.983 85.2638 16.0053C85.7552 16.0276 86.2116 16.0722 86.6504 16.1168C87.0892 16.206 87.5105 16.2729 87.8966 16.3621C88.2828 16.429 88.6338 16.5628 88.9673 16.6744C89.3008 16.7859 89.5992 16.8974 89.8625 17.0089C90.1258 17.1204 90.354 17.2542 90.5646 17.3657C90.7577 17.4772 90.9332 17.5664 91.0736 17.6556C91.3544 17.8117 91.4949 17.9009 91.4949 17.9009L91.4246 18.347C91.4246 18.347 91.2667 18.3916 90.9683 18.4362C90.6699 18.5031 90.2662 18.5477 89.7396 18.6592C89.4763 18.7261 89.1779 18.7707 88.8796 18.8376C88.5636 18.9045 88.2301 18.9491 87.8791 19.0606C87.528 19.1498 87.1594 19.239 86.7557 19.3283C86.3696 19.4398 85.9659 19.5736 85.5446 19.6851C84.7021 19.9527 83.7894 20.2426 82.8591 20.5771C81.9113 20.934 80.9284 21.3131 79.8928 21.7145C79.3662 21.8929 78.8572 22.116 78.3131 22.3167C77.7689 22.5174 77.2424 22.7404 76.6807 22.9411C76.1366 23.1864 75.5749 23.4095 75.0308 23.6771C74.4867 23.9447 73.9425 24.2346 73.3984 24.5468L72.591 25.0152L71.8012 25.5058C71.2746 25.818 70.748 26.1749 70.239 26.5317C69.7124 26.8662 69.221 27.2454 68.7119 27.6022C68.2205 27.959 67.7115 28.3158 67.2375 28.695C66.8689 28.9849 66.5004 29.2525 66.1493 29.5424C66.5179 29.4978 66.8689 29.4532 67.2375 29.4309C67.5008 29.4086 67.7641 29.3863 68.0098 29.364H68.7997C69.3263 29.3417 69.8353 29.3863 70.3619 29.4309C70.8884 29.4532 71.3974 29.5424 71.9065 29.6093C72.433 29.6762 72.9245 29.8101 73.4511 29.9216C73.9601 30.0331 74.4691 30.1892 74.9606 30.3453L75.7153 30.5906L76.4525 30.8805C76.944 31.0813 77.4354 31.2597 77.9094 31.505C78.3833 31.728 78.8747 31.951 79.3486 32.2186L80.7528 33.0215C81.2267 33.2891 81.6656 33.6013 82.1044 33.8913L82.7889 34.3373L83.4383 34.8279L84.7372 35.8092L85.9834 36.8797L86.6153 37.4149L87.2121 37.9725L88.4056 39.1099C88.8093 39.489 89.1779 39.9127 89.5641 40.3141C89.9502 40.7156 90.3364 41.117 90.705 41.5407L91.8108 42.8119C92.1618 43.2357 92.5655 43.6594 92.899 44.1054L93.9522 45.4212C94.3032 45.8673 94.6543 46.291 94.9878 46.7593C95.6547 47.6737 96.3393 48.5881 96.9887 49.5247L98.9019 52.3571L99.1126 52.7585C99.1126 52.7585 99.1126 52.7362 99.1126 52.7585L99.1301 52.8031L99.1828 52.8923L99.3056 53.1153C99.3934 53.2714 99.4812 53.4052 99.5865 53.5614C99.7795 53.8736 99.9902 54.1635 100.201 54.4757C100.622 55.0779 101.078 55.6577 101.552 56.2153C102.5 57.308 103.518 58.3339 104.606 59.2483C105.695 60.1404 106.836 60.9209 108.012 61.59C109.188 62.259 110.399 62.8166 111.662 63.2403L112.136 63.4187C112.294 63.4633 112.452 63.5079 112.61 63.5525L113.558 63.8201C114.208 63.9539 114.839 64.1324 115.489 64.1993C115.822 64.2439 116.138 64.3108 116.472 64.3554L117.455 64.4446L117.946 64.4892L118.438 64.5115L119.438 64.5338C119.772 64.5561 120.105 64.5115 120.439 64.5115L121.457 64.4669C122.124 64.3777 122.808 64.3331 123.493 64.2439C124.177 64.1101 124.844 64.0209 125.529 63.8871C126.213 63.7309 126.898 63.5971 127.565 63.4187C128.232 63.218 128.916 63.0173 129.601 62.8166L131.637 62.1029L132.725 61.7015L133.849 61.3001C134.603 61.0547 135.341 60.8094 136.095 60.5864C137.587 60.1404 139.097 59.7835 140.624 59.4713C142.133 59.1591 143.66 58.9584 145.205 58.8023C146.732 58.6461 148.259 58.5792 149.804 58.6015C150.558 58.6238 151.348 58.6461 152.085 58.6908C152.858 58.7354 153.613 58.8023 154.367 58.8915C155.894 59.0699 157.421 59.3598 158.913 59.8281C159.668 60.0735 160.423 60.3634 161.142 60.7425C161.897 61.077 162.599 61.5677 163.196 62.2813Z" fill="#F71708"/>
<path d="M94.0926 57.1073L93.9697 56.9289L93.882 56.7282L94.0926 57.1073Z" fill="#F71708"/>
<path d="M176.115 102.023C175.255 102.224 174.377 102.402 173.517 102.58L170.919 103.071C169.181 103.361 167.444 103.651 165.724 103.919C164.864 104.052 163.986 104.164 163.126 104.275C162.266 104.409 161.388 104.521 160.528 104.61C158.79 104.833 157.053 105.034 155.333 105.212C153.595 105.391 151.857 105.569 150.137 105.703C148.399 105.859 146.662 105.993 144.942 106.126C141.466 106.372 138.009 106.595 134.533 106.684C132.795 106.751 131.058 106.773 129.32 106.773H129.074C129.443 108.847 130.022 110.854 130.759 112.728C130.917 113.129 131.11 113.531 131.268 113.932C131.461 114.333 131.655 114.713 131.83 115.114C132.216 115.872 132.638 116.631 133.076 117.344C133.971 118.749 134.99 120.043 136.06 121.18C138.219 123.455 140.694 125.105 143.186 126.086C143.818 126.332 144.45 126.555 145.065 126.711C145.38 126.778 145.696 126.889 145.995 126.934C146.293 126.979 146.574 127.045 146.89 127.112C147.241 127.157 147.575 127.202 147.908 127.246H147.978H148.013H147.996H148.119L148.347 127.268C148.505 127.268 148.645 127.291 148.803 127.291C149.102 127.313 149.418 127.313 149.716 127.313C150.014 127.291 150.313 127.335 150.611 127.291C151.805 127.246 152.928 127.023 153.999 126.8C155.069 126.533 156.087 126.176 157.018 125.774C158.896 124.971 160.475 123.923 161.722 122.964C162.985 122.005 163.898 121.069 164.53 120.444C165.109 119.82 165.443 119.463 165.478 119.441C165.46 119.507 165.215 119.954 164.811 120.779C164.337 121.626 163.635 122.897 162.529 124.28C161.441 125.685 159.984 127.291 158.071 128.696C157.825 128.874 157.579 129.053 157.334 129.231C157.088 129.409 156.825 129.566 156.544 129.722C156.017 130.078 155.456 130.346 154.876 130.658C154.578 130.814 154.28 130.948 153.981 131.06C153.683 131.194 153.367 131.327 153.051 131.439C152.735 131.55 152.401 131.684 152.085 131.773C151.752 131.863 151.418 131.974 151.067 132.063C150.734 132.175 150.383 132.219 150.032 132.286C149.681 132.353 149.33 132.42 148.961 132.465C148.786 132.487 148.593 132.509 148.417 132.532L148.136 132.554L147.996 132.576H147.908H147.873H147.803C147.469 132.599 147.118 132.621 146.767 132.643C146.381 132.643 145.977 132.643 145.574 132.621C145.17 132.599 144.784 132.554 144.398 132.532C143.608 132.442 142.818 132.309 142.01 132.13C138.798 131.372 135.481 129.699 132.532 127.023C131.04 125.707 129.654 124.124 128.407 122.362C127.144 120.6 126.02 118.615 125.108 116.474C124.195 114.333 123.423 112.036 122.914 109.65C122.703 108.669 122.51 107.643 122.387 106.639C121.228 106.617 120.052 106.572 118.894 106.528L113.681 106.372C111.943 106.327 110.206 106.26 108.468 106.238L103.255 106.149L92.8815 105.993L93.1272 105.97L92.8288 105.993H92.8639L90.3013 106.305C89.8449 106.372 89.371 106.394 88.8971 106.416L87.4754 106.506L86.7733 106.55H86.0536L84.6144 106.528C84.1404 106.528 83.649 106.483 83.1751 106.439L81.7358 106.327L80.2789 106.104C80.0332 106.06 79.7875 106.037 79.5593 105.993L78.8221 105.814C78.3306 105.68 77.8567 105.591 77.3652 105.413L76.6456 105.167C76.3999 105.078 76.1541 104.989 75.926 104.878L75.2063 104.543C75.0834 104.476 74.9606 104.432 74.8377 104.365L74.4867 104.164L73.767 103.74L73.0649 103.227C72.8367 103.071 72.6086 102.848 72.3804 102.647C72.2751 102.536 72.1522 102.447 72.0469 102.335L71.7134 101.978C71.4852 101.755 71.2746 101.443 71.064 101.153C70.9586 100.997 70.8533 100.819 70.748 100.64C70.6954 100.573 70.6427 100.44 70.59 100.328L70.5198 100.172C70.5023 100.127 70.4496 100.016 70.4145 99.9266L70.4847 100.083C70.3268 99.7036 70.1688 99.3244 70.0284 98.9453C69.888 98.5439 69.7475 98.1648 69.6247 97.741C69.5018 97.3173 69.3965 96.9159 69.3087 96.4698C69.2561 96.2468 69.221 96.0461 69.1859 95.8231L69.0981 95.154C69.063 94.931 69.0454 94.708 69.0279 94.4627C69.0103 94.2397 68.9752 94.0166 68.9928 93.7713V93.08C68.9928 92.8569 69.0103 92.6116 69.0279 92.3886C69.0279 92.1656 69.063 91.9203 69.0981 91.6973C69.1332 91.4742 69.1508 91.2289 69.2034 91.0059C69.2736 90.5599 69.3965 90.1138 69.5194 89.6678L69.73 89.0211C69.8002 88.8203 69.888 88.6196 69.9757 88.3966C70.1512 87.9952 70.3268 87.6161 70.5374 87.2369C70.6252 87.0585 70.748 86.8801 70.8533 86.7017C70.9586 86.5233 71.064 86.3672 71.1868 86.1887C71.2921 86.0103 71.415 85.8542 71.5379 85.6981C71.6607 85.542 71.7661 85.3859 71.8889 85.2521C72.1347 84.9621 72.3804 84.6722 72.6437 84.4046C72.907 84.137 73.1702 83.8917 73.4511 83.6463C73.7319 83.4233 73.9952 83.178 74.2936 82.9773C74.434 82.8658 74.592 82.7766 74.7324 82.6651C74.8904 82.5536 75.0132 82.4867 75.2239 82.3751L75.3818 82.2859L75.4871 82.2636C75.9962 82.1521 76.5052 82.0629 77.0142 81.9737C77.5232 81.9068 78.0322 81.8176 78.5413 81.7953C79.0503 81.773 79.5593 81.7284 80.0859 81.7284H80.8582L81.6305 81.7953C82.1395 81.8176 82.6485 81.9291 83.1751 81.996C83.4383 82.0406 83.6841 82.1075 83.9298 82.1744C84.1931 82.2413 84.4388 82.2859 84.6846 82.3751C84.9303 82.4644 85.1936 82.5313 85.4393 82.6205L86.1765 82.9104C86.4222 82.9996 86.668 83.1334 86.8962 83.2449C87.1419 83.3564 87.3876 83.4679 87.6158 83.624C88.0897 83.8694 88.5461 84.1816 89.0024 84.4715L89.6694 84.9621C89.8976 85.1183 90.1082 85.319 90.3189 85.4751C90.7401 85.8319 91.1614 86.211 91.5475 86.6348C91.7582 86.8355 91.9337 87.0362 92.1267 87.2592C92.3198 87.4599 92.4953 87.683 92.6884 87.906C93.057 88.352 93.4081 88.8203 93.7416 89.311C94.0751 89.7793 94.391 90.2923 94.6894 90.8052C94.9878 91.3181 95.2686 91.8534 95.5319 92.3886C95.7952 92.9462 96.0409 93.4814 96.2515 94.0835L95.6548 94.4404C95.4266 93.9274 95.1633 93.4145 94.8825 92.9239C94.6016 92.4332 94.3032 91.9649 93.9873 91.4965C93.6714 91.0505 93.3379 90.6045 93.0044 90.1807C92.6533 89.757 92.3023 89.3556 91.9337 88.9765C91.7581 88.7757 91.5651 88.5973 91.372 88.4189C91.1789 88.2405 90.9858 88.0621 90.7928 87.906C90.4066 87.5715 90.0029 87.2592 89.5817 86.9693C89.371 86.8355 89.178 86.6794 88.9673 86.5456L88.3354 86.1664C87.8966 85.9434 87.4754 85.6981 87.0366 85.5197C86.8259 85.4082 86.5978 85.3413 86.3696 85.2521C86.1414 85.1629 85.9308 85.0737 85.7026 85.0068L85.0181 84.806C84.7899 84.7391 84.5617 84.6945 84.3335 84.6499C84.1053 84.6053 83.8772 84.5607 83.649 84.5384C83.4208 84.5161 83.1926 84.4715 82.9469 84.4492C82.473 84.4269 82.0166 84.36 81.5427 84.3823H80.8406L80.1385 84.4492C79.6822 84.4715 79.2082 84.5607 78.7519 84.6276C78.2955 84.6945 77.8216 84.8283 77.3652 84.9175C76.9615 85.0291 76.5578 85.1406 76.1717 85.2521C76.2068 85.2298 76.2419 85.2075 76.2595 85.1852L75.9962 85.2967C76.0488 85.2744 76.1015 85.2744 76.1717 85.2521C76.1015 85.2967 76.0137 85.3636 75.9435 85.4305C75.8382 85.5197 75.7153 85.6089 75.61 85.6981C75.3818 85.8765 75.1712 86.0995 74.9606 86.3003C74.75 86.5233 74.5569 86.724 74.3638 86.947C74.1707 87.17 73.9776 87.4153 73.8197 87.6384C73.7319 87.7499 73.6442 87.8837 73.5739 88.0175C73.4862 88.1513 73.416 88.2628 73.3458 88.3966C73.2756 88.5304 73.1878 88.6419 73.1351 88.7757C73.0649 88.9095 72.9947 89.0434 72.9421 89.1772C72.8192 89.4448 72.7139 89.7124 72.6086 90.0023C72.5559 90.1361 72.5208 90.27 72.4681 90.4261L72.3628 90.8498C72.3102 91.1397 72.24 91.4296 72.2224 91.7196C72.2049 91.8534 72.1873 92.0095 72.1873 92.1433C72.1698 92.2994 72.1698 92.4332 72.1698 92.5893V93.0354L72.2049 93.4814C72.2049 93.6375 72.24 93.7713 72.2575 93.9274C72.2751 94.0835 72.2926 94.2174 72.3277 94.3735L72.4155 94.8195C72.4506 94.9756 72.5033 95.1094 72.5384 95.2655C72.6086 95.5555 72.7139 95.8454 72.8192 96.1353C72.907 96.4252 73.0474 96.7151 73.1527 97.0051L73.5564 97.8525L73.6266 98.0309C73.6266 98.0086 73.5915 97.964 73.5915 97.9417L73.609 97.964C73.6266 97.9863 73.6266 97.9863 73.6442 98.0086C73.6968 98.0755 73.7144 98.1201 73.767 98.1871C73.8723 98.2986 73.9776 98.4324 74.1181 98.5662L74.3111 98.7446L74.5393 98.923C74.6973 99.0345 74.8202 99.1683 74.9957 99.2575L75.4871 99.5698L76.0313 99.8374C76.3823 100.038 76.786 100.15 77.1546 100.306C77.3477 100.395 77.5408 100.44 77.7514 100.484L78.3482 100.64C78.7519 100.774 79.1731 100.796 79.5768 100.886L80.1912 100.997C80.4018 101.019 80.6124 101.042 80.8231 101.064L82.1044 101.175H83.4032C83.842 101.175 84.2633 101.198 84.7021 101.153L86.001 101.064L86.6504 101.019L87.2999 100.93L88.6163 100.774C89.0551 100.729 89.4939 100.685 89.9327 100.573L92.5656 100.105L92.6709 100.083H92.8639L103.272 99.5698L108.486 99.3021C110.223 99.2129 111.961 99.0791 113.699 98.9899L118.894 98.6554C120 98.5885 121.106 98.4993 122.194 98.4324C122.211 98.187 122.229 97.9417 122.247 97.6964L122.334 96.7821C122.387 96.1576 122.492 95.5555 122.58 94.9533C122.931 92.5224 123.563 90.1584 124.37 87.9283C124.581 87.3707 124.774 86.8132 125.002 86.2779L125.336 85.4751L125.704 84.6945C126.196 83.6686 126.74 82.6874 127.319 81.7284C128.46 79.8328 129.759 78.1378 131.181 76.6882C133.971 73.7444 137.184 71.7595 140.343 70.6891C141.923 70.1761 143.502 69.8416 145.012 69.7301C145.205 69.7078 145.38 69.7078 145.574 69.6855C145.767 69.6855 145.942 69.6855 146.135 69.6855C146.504 69.6855 146.872 69.6855 147.241 69.7078C147.417 69.7078 147.61 69.7301 147.785 69.7301L148.048 69.7524H148.136H148.171H148.242L148.364 69.7747C148.698 69.8193 149.014 69.8639 149.33 69.9085C150.787 70.1538 152.05 70.5106 153.261 70.979C154.455 71.4473 155.561 72.0272 156.561 72.6516C158.545 73.9228 160.107 75.3501 161.265 76.6436C162.441 77.9371 163.214 79.1191 163.74 79.922C164.004 80.3234 164.179 80.6579 164.302 80.8809C164.407 81.0817 164.477 81.1709 164.477 81.1932C164.442 81.1486 164.091 80.8363 163.477 80.2788C162.81 79.6989 161.827 78.8738 160.528 78.0263C159.229 77.1788 157.579 76.3091 155.666 75.6623C154.701 75.3724 153.683 75.0825 152.594 74.9264C151.524 74.7703 150.348 74.7034 149.224 74.748C148.909 74.7703 148.575 74.7926 148.259 74.8149H148.136H148.066H148.031C148.119 74.8149 148.066 74.8149 148.048 74.8149L147.82 74.8372C147.662 74.8595 147.522 74.8818 147.364 74.9041C147.066 74.9264 146.75 74.9933 146.451 75.0602C146.293 75.0825 146.153 75.1271 145.995 75.1494C145.837 75.194 145.696 75.2386 145.538 75.2609C144.31 75.5731 143.064 76.0192 141.852 76.6436C139.413 77.8702 137.061 79.7436 135.025 82.219C134.024 83.4679 133.076 84.806 132.269 86.3225C131.865 87.0808 131.479 87.8391 131.146 88.6642L130.882 89.2664L130.637 89.8908C130.479 90.2922 130.338 90.716 130.198 91.1397C130.04 91.5635 129.934 92.0095 129.812 92.4332C129.689 92.8793 129.583 93.303 129.478 93.749C129.285 94.6411 129.109 95.5332 128.987 96.4475C128.934 96.9159 128.846 97.3619 128.829 97.8302L128.811 98.0755C128.969 98.0755 129.127 98.0756 129.303 98.0532C131.04 97.9863 132.778 97.964 134.516 97.964C137.991 97.9417 141.466 98.0532 144.942 98.1648C146.679 98.2317 148.417 98.2986 150.155 98.4101C151.892 98.4993 153.63 98.6108 155.368 98.7223C157.105 98.8561 158.843 98.9676 160.581 99.146C161.458 99.2129 162.318 99.3021 163.179 99.3914C164.056 99.4806 164.916 99.5698 165.794 99.659C167.532 99.8374 169.269 100.083 171.007 100.306L173.622 100.707C174.5 100.863 175.36 100.997 176.237 101.175L176.115 102.023Z" fill="#F71708"/>
<path d="M76.2068 85.2744C76.1892 85.2967 76.1541 85.319 76.119 85.3413C76.0664 85.3636 76.0137 85.3636 75.9435 85.3859L76.2068 85.2744Z" fill="#F71708"/>
<path d="M93.1272 106.015L92.8815 106.037H92.8289L93.1272 106.015Z" fill="#F71708"/>
</svg>
